/* XPM */
static char *result[] = {
/* columns rows colors chars-per-pixel */
"64 64 42 1 ",
"  c #4C5F59",
". c #565F5C",
"X c #5D5D5D",
"o c #62575B",
"O c #625B5D",
"+ c #57625D",
"@ c #5E605F",
"# c #615C60",
"$ c gray38",
"% c #AE3C64",
"& c #B53664",
"* c #BB3664",
"= c #B53A65",
"- c #B93966",
"; c #BD3769",
": c #B63B68",
"> c #BA3B69",
", c #F60257",
"< c #FD0056",
"1 c #F60259",
"2 c #FE015A",
"3 c #F7085D",
"4 c #FE085D",
"5 c #FF0560",
"6 c #C43467",
"7 c #C03866",
"8 c #C23A6A",
"9 c #AF4269",
"0 c #B1436A",
"q c #BD406C",
"w c #F5588F",
"e c #FE5692",
"r c #F55C93",
"t c #FD5C95",
"y c #FF5D99",
"u c #F56295",
"i c #FA6096",
"p c #FC6199",
"a c #FFF7FD",
"s c #F4FFFF",
"d c #FDFDFF",
"f c None",
/* pixels */
"ffffffffffffffffffffffffffffffffffffffffffffffffffffffffffffffff",
"ffffffffffffffffffffffffffffffffffffffffffffffffffffffffffffffff",
"ffffffffffffffffffffffffffffffffffffffffffffffffffffffffffffffff",
"ffffffffffffffffffffffffffffffffffffffffffffffffffffffffffffffff",
"ffffffffffffffffffffffffffff9=**7=ffffffffffffffffffffffffffffff",
"ffffffffffffffffffffffffffff==q*==ffffffffffffffffffffffffffffff",
"ffffffffffffffffffffffffff7=<<dddd==ffffffffffffffffffffffffffff",
"ffffffffffffffffffffffffff*><2sddd0*ffffffffffffffffffffffffffff",
"ffffffffffffffffffffffff:*22<2sddddd*=ffffffffffffffffffffffffff",
"ffffffffffffffffffffffff=:122<dddddd7*ffffffffffffffffffffffffff",
"ffffffffffffffffffffffff;qtr22<2ddsd=%ffffffffffffffffffffffffff",
"ffffffffffffffffffffffff:=tt2252dadaq-ffffffffffffffffffffffffff",
"ffffffffffffffffffffff%-rptt1212,,ddds=*ffffffffffffffffffffffff",
"ffffffffffffffffffffff%-tytt25224<ddss-=ffffffffffffffffffffffff",
"ffffffffffffffffffffff==ueryrt32<222dd*=ffffffffffffffffffffffff",
"ffffffffffffffffffffff*>trttyt22212<dd*=ffffffffffffffffffffffff",
"ffffffffffffffffffff=>ttutrt&*:=22<2<<&>>>ffffffffffffffffffffff",
"ffffffffffffffffffff*8rtettt8=-8242<5,>=-=ffffffffffffffffffffff",
"ffffffffffffffffffff==8*it0;,223:%1<*>dd>=ffffffffffffffffffffff",
"ffffffffffffffffffff=%8=tt;&2<22:><<q=sd==ffffffffffffffffffffff",
"ffffffffffffffffffff&qwi&812222551>&<2dd*=ffffffffffffffffffffff",
"ffffffffffffffffffff&=tt:=<225<225;>2<dd>-ffffffffffffffffffffff",
"ffffffffffffffffffff=*pt::22222221;=<<sd>=ffffffffffffffffffffff",
"ffffffffffffffffffff>*tt:;22222222*=<<dd=>ffffffffffffffffffffff",
"ffffffffffffffffffff=*it--<<222222::2222>-ffffffffffffffffffffff",
"ffffffffffffffffffff--tt--4<222522-:2222*=ffffffffffffffffffffff",
"ffffffffffffffffffff--it>*<<222222>:2222==ffffffffffffffffffffff",
"ffffffffffffffffffff-*tt=*<4222225>:2222>>ffffffffffffffffffffff",
"ffffffffffffffffffff>>tt>><<222522-:5222>=ffffffffffffffffffffff",
"ffffffffffffffffffff==tt=*<4222252;:2222-=ffffffffffffffffffffff",
"ffffffffffffffffffff*-pt>*4<222222>:2222-=ffffffffffffffffffffff",
"ffffffffffffffffffff=*tt=><<222222:>2222>>ffffffffffffffffffffff",
"ffffffffffffffffffff--it:*2<222222::2222-=ffffffffffffffffffffff",
"ffffffffffffffffffff-*tt>>2<222222;:2222>>ffffffffffffffffffffff",
"ffffffffffffffffffff--tt=><2222552>:2222*=ffffffffffffffffffffff",
"ffffffffffffffffffff--tt:*22222222>:2222>=ffffffffffffffffffffff",
"ffffffffffffffffffff=*pt>>4<222222-:2222>=ffffffffffffffffffffff",
"ffffffffffffffffffff=>tt=*<<222222;:2222--ffffffffffffffffffffff",
"ffffffffffffffffffff=*tt>&4<222252>:2252>=ffffffffffffffffffffff",
"ffffffffffffffffffff>*tt>><<225222:>2222>=ffffffffffffffffffffff",
"ffffffffffffffffffff7=tt=><<23222<>;2522:&ffffffffffffffffffffff",
"ffffffffffffffffffff>qtt>>1<2<2212=:<<22=*ffffffffffffffffffffff",
"ffffffffffffffffffff&%7;tr;%5215=>4<;:11==ffffffffffffffffffffff",
"ffffffffffffffffffff==7=tt;:25<2>><<8614>%ffffffffffffffffffffff",
"ffffffffffffffffffffff==tttp&::;<<151<>*ffffffffffffffffffffffff",
"ffffffffffffffffffffff*:rtyt:::;2225120*ffffffffffffffffffffffff",
"ffffffffffffffffffffff:=yetytt52251<<<>>ffffffffffffffffffffffff",
"ffffffffffffffffffffff*>uepeyt1222222<::ffffffffffffffffffffffff",
"ffffffffffffffffffffffff%:ty21522222*=@OXXXXXXXXXXXXffffffffffff",
"ffffffffffffffffffffffff**tr2122322<*=X@XX@XXXXX@@X$ffffffffffff",
"ffffffffffffffffffffffff>:4<22112<<<>qX+X$XXXXXXXXXXX$XXffffffff",
"ffffffffffffffffffffffff=:<<<<5232<4=-++XX@#XX$XX$XXXXXXffffffff",
"ffffffffffffffffffffffffff;>,2,<22>:OOooXXXXXXXXXXXXXXffffffffff",
"ffffffffffffffffffffffffff=;<44<<2&9Oo@OXXXXX$XXXXX$XXffffffffff",
"ffffffffffffffffffffffffffff0%=>::## .XXXXX$XXffffffffffffffffff",
"ffffffffffffffffffffffffffff=*:*;>XXOoX.XXXXXXffffffffffffffffff",
"ffffffffffffffffffffffffffffffffffffffffffffffffffffffffffffffff",
"ffffffffffffffffffffffffffffffffffffffffffffffffffffffffffffffff",
"ffffffffffffffffffffffffffffffffffffffffffffffffffffffffffffffff",
"ffffffffffffffffffffffffffffffffffffffffffffffffffffffffffffffff",
"ffffffffffffffffffffffffffffffffffffffffffffffffffffffffffffffff",
"ffffffffffffffffffffffffffffffffffffffffffffffffffffffffffffffff",
"ffffffffffffffffffffffffffffffffffffffffffffffffffffffffffffffff",
"ffffffffffffffffffffffffffffffffffffffffffffffffffffffffffffffff"
};
