/* XPM */
static char *result[] = {
/* columns rows colors chars-per-pixel */
"64 64 6 1 ",
"  c #5D5D5D",
". c #B83A66",
"X c #FF005A",
"o c #FE5C95",
"O c white",
"+ c None",
/* pixels */
"++++++++++++++++++++++++++++++++++++++++++++++++++++++++++++++++",
"++++++++++++++++++++++++++++++++++++++++++++++++++++++++++++++++",
"++++++++++++++++++++++++++++++++++++++++++++++++++++++++++++++++",
"++++++++++++++++++++++++++++++++++++++++++++++++++++++++++++++++",
"++++++++++++++++++++++++++++......++++++++++++++++++++++++++++++",
"++++++++++++++++++++++++++++......++++++++++++++++++++++++++++++",
"++++++++++++++++++++++++++..XXOOOO..++++++++++++++++++++++++++++",
"++++++++++++++++++++++++++..XXOOOO..++++++++++++++++++++++++++++",
"++++++++++++++++++++++++..XXXXOOOOOO..++++++++++++++++++++++++++",
"++++++++++++++++++++++++..XXXXOOOOOO..++++++++++++++++++++++++++",
"++++++++++++++++++++++..ooooXXXXOOOOOO..++++++++++++++++++++++++",
"++++++++++++++++++++++..ooooXXXXOOOOOO..++++++++++++++++++++++++",
"++++++++++++++++++++..ooooooXXXXXXOOOOOO..++++++++++++++++++++++",
"++++++++++++++++++++..ooooooXXXXXXOOOOOO..++++++++++++++++++++++",
"++++++++++++++++++..ooooooooooXXXXXXOOOOXX..++++++++++++++++++++",
"++++++++++++++++++..ooooooooooXXXXXXOOOOXX..++++++++++++++++++++",
"++++++++++++++++++....oooooo......XXXXXX....++++++++++++++++++++",
"++++++++++++++++++....oooooo......XXXXXX....++++++++++++++++++++",
"++++++++++++++++++..oo..oo..XXXXXX..XX..OO..++++++++++++++++++++",
"++++++++++++++++++..oo..oo..XXXXXX..XX..OO..++++++++++++++++++++",
"++++++++++++++++++..oooo..XXXXXXXXXX..OOOO..++++++++++++++++++++",
"++++++++++++++++++..oooo..XXXXXXXXXX..OOOO..++++++++++++++++++++",
"++++++++++++++++++..oooo..XXXXXXXXXX..XXOO..++++++++++++++++++++",
"++++++++++++++++++..oooo..XXXXXXXXXX..XXOO..++++++++++++++++++++",
"++++++++++++++++++..oooo..XXXXXXXXXX..XXXX..++++++++++++++++++++",
"++++++++++++++++++..oooo..XXXXXXXXXX..XXXX..++++++++++++++++++++",
"++++++++++++++++++..oooo..XXXXXXXXXX..XXXX..++++++++++++++++++++",
"++++++++++++++++++..oooo..XXXXXXXXXX..XXXX..++++++++++++++++++++",
"++++++++++++++++++..oooo..XXXXXXXXXX..XXXX..++++++++++++++++++++",
"++++++++++++++++++..oooo..XXXXXXXXXX..XXXX..++++++++++++++++++++",
"++++++++++++++++++..oooo..XXXXXXXXXX..XXXX..++++++++++++++++++++",
"++++++++++++++++++..oooo..XXXXXXXXXX..XXXX..++++++++++++++++++++",
"++++++++++++++++++..oooo..XXXXXXXXXX..XXXX..++++++++++++++++++++",
"++++++++++++++++++..oooo..XXXXXXXXXX..XXXX..++++++++++++++++++++",
"++++++++++++++++++..oooo..XXXXXXXXXX..XXXX..++++++++++++++++++++",
"++++++++++++++++++..oooo..XXXXXXXXXX..XXXX..++++++++++++++++++++",
"++++++++++++++++++..oooo..XXXXXXXXXX..XXXX..++++++++++++++++++++",
"++++++++++++++++++..oooo..XXXXXXXXXX..XXXX..++++++++++++++++++++",
"++++++++++++++++++..oooo..XXXXXXXXXX..XXXX..++++++++++++++++++++",
"++++++++++++++++++..oooo..XXXXXXXXXX..XXXX..++++++++++++++++++++",
"++++++++++++++++++..oooo..XXXXXXXXXX..XXXX..++++++++++++++++++++",
"++++++++++++++++++..oooo..XXXXXXXXXX..XXXX..++++++++++++++++++++",
"++++++++++++++++++..oo..oo..XXXXXX..XX..XX..++++++++++++++++++++",
"++++++++++++++++++..oo..oo..XXXXXX..XX..XX..++++++++++++++++++++",
"++++++++++++++++++....oooooo......XXXXXX....++++++++++++++++++++",
"++++++++++++++++++....oooooo......XXXXXX....++++++++++++++++++++",
"++++++++++++++++++++..ooooooooXXXXXXXXXX..++++++++++++++++++++++",
"++++++++++++++++++++..ooooooooXXXXXXXXXX..++++++++++++++++++++++",
"++++++++++++++++++++++..ooooXXXXXXXXXX..            ++++++++++++",
"++++++++++++++++++++++..ooooXXXXXXXXXX..            ++++++++++++",
"++++++++++++++++++++++++..XXXXXXXXXX..                  ++++++++",
"++++++++++++++++++++++++..XXXXXXXXXX..                  ++++++++",
"++++++++++++++++++++++++++..XXXXXX..                  ++++++++++",
"++++++++++++++++++++++++++..XXXXXX..                  ++++++++++",
"++++++++++++++++++++++++++++......            ++++++++++++++++++",
"++++++++++++++++++++++++++++......            ++++++++++++++++++",
"++++++++++++++++++++++++++++++++++++++++++++++++++++++++++++++++",
"++++++++++++++++++++++++++++++++++++++++++++++++++++++++++++++++",
"++++++++++++++++++++++++++++++++++++++++++++++++++++++++++++++++",
"++++++++++++++++++++++++++++++++++++++++++++++++++++++++++++++++",
"++++++++++++++++++++++++++++++++++++++++++++++++++++++++++++++++",
"++++++++++++++++++++++++++++++++++++++++++++++++++++++++++++++++",
"++++++++++++++++++++++++++++++++++++++++++++++++++++++++++++++++",
"++++++++++++++++++++++++++++++++++++++++++++++++++++++++++++++++"
};
