/* XPM */
static char *result[] = {
/* columns rows colors chars-per-pixel */
"64 64 39 1 ",
"  c #4C5F59",
". c #565F5C",
"X c #5D5D5D",
"o c #62575B",
"O c #625B5D",
"+ c #57625D",
"@ c #5E605F",
"# c #615C60",
"$ c gray38",
"% c #AE3B63",
"& c #B43764",
"* c #BB3665",
"= c #B63A65",
"- c #BA3966",
"; c #B63B68",
": c #BA3B69",
"> c #F60256",
", c #FC0056",
"< c #F60259",
"1 c #FE015A",
"2 c #F7085D",
"3 c #C23667",
"4 c #C03866",
"5 c #C13569",
"6 c #C23A6B",
"7 c #AF4269",
"8 c #B4426A",
"9 c #BD406C",
"0 c #FE5692",
"q c #F55C93",
"w c #FE5C95",
"e c #FF5F98",
"r c #F56195",
"t c #FA6197",
"y c #FC6198",
"u c #FFF7FD",
"i c #F6FFFF",
"p c #FDFEFE",
"a c None",
/* pixels */
"aaaaaaaaaaaaaaaaaaaaaaaaaaaaaaaaaaaaaaaaaaaaaaaaaaaaaaaaaaaaaaaa",
"aaaaaaaaaaaaaaaaaaaaaaaaaaaaaaaaaaaaaaaaaaaaaaaaaaaaaaaaaaaaaaaa",
"aaaaaaaaaaaaaaaaaaaaaaaaaaaaaaaaaaaaaaaaaaaaaaaaaaaaaaaaaaaaaaaa",
"aaaaaaaaaaaaaaaaaaaaaaaaaaaaaaaaaaaaaaaaaaaaaaaaaaaaaaaaaaaaaaaa",
"aaaaaaaaaaaaaaaaaaaaaaaaaaaa%-&--=aaaaaaaaaaaaaaaaaaaaaaaaaaaaaa",
"aaaaaaaaaaaaaaaaaaaaaaaaaaaa7;:-==aaaaaaaaaaaaaaaaaaaaaaaaaaaaaa",
"aaaaaaaaaaaaaaaaaaaaaaaaaa3=1,pppp==aaaaaaaaaaaaaaaaaaaaaaaaaaaa",
"aaaaaaaaaaaaaaaaaaaaaaaaaa-:,1pppp=*aaaaaaaaaaaaaaaaaaaaaaaaaaaa",
"aaaaaaaaaaaaaaaaaaaaaaaa=-1111pppppp*=aaaaaaaaaaaaaaaaaaaaaaaaaa",
"aaaaaaaaaaaaaaaaaaaaaaaa==,111pupppp*-aaaaaaaaaaaaaaaaaaaaaaaaaa",
"aaaaaaaaaaaaaaaaaaaaaaaa::wq1112ppip=%aaaaaaaaaaaaaaaaaaaaaaaaaa",
"aaaaaaaaaaaaaaaaaaaaaaaa:-ww1<11pupu94aaaaaaaaaaaaaaaaaaaaaaaaaa",
"aaaaaaaaaaaaaaaaaaaaaa%-qeqw11<1>>pppp==aaaaaaaaaaaaaaaaaaaaaaaa",
"aaaaaaaaaaaaaaaaaaaaaa7=we0w11111<puii4=aaaaaaaaaaaaaaaaaaaaaaaa",
"aaaaaaaaaaaaaaaaaaaaaa-=r0ywqe211211pp&=aaaaaaaaaaaaaaaaaaaaaaaa",
"aaaaaaaaaaaaaaaaaaaaaa&=wwwwew111<11up:=aaaaaaaaaaaaaaaaaaaaaaaa",
"aaaaaaaaaaaaaaaaaaaa==-=wwwwrw:*:-1>1111-=aaaaaaaaaaaaaaaaaaaaaa",
"aaaaaaaaaaaaaaaaaaaa=&6*wwwwww5:=&111111--aaaaaaaaaaaaaaaaaaaaaa",
"aaaaaaaaaaaaaaaaaaaa-9qr:&ww%:<212&-11-:-8aaaaaaaaaaaaaaaaaaaaaa",
"aaaaaaaaaaaaaaaaaaaa-:ww=:wt=:1111-6<2:===aaaaaaaaaaaaaaaaaaaaaa",
"aaaaaaaaaaaaaaaaaaaa=-wwww:->>11111<*-pp*=aaaaaaaaaaaaaaaaaaaaaa",
"aaaaaaaaaaaaaaaaaaaa-*wwwe&=,1211112-7pp-=aaaaaaaaaaaaaaaaaaaaaa",
"aaaaaaaaaaaaaaaaaaaa=:wwwq:3,1,11111-;pp-=aaaaaaaaaaaaaaaaaaaaaa",
"aaaaaaaaaaaaaaaaaaaa=:qwww=:,1<1<111*=pp--aaaaaaaaaaaaaaaaaaaaaa",
"aaaaaaaaaaaaaaaaaaaa--wwww=-11111111:;11-=aaaaaaaaaaaaaaaaaaaaaa",
"aaaaaaaaaaaaaaaaaaaa--wwww-*11111111;*11-=aaaaaaaaaaaaaaaaaaaaaa",
"aaaaaaaaaaaaaaaaaaaa--wwww--11111111;:11-=aaaaaaaaaaaaaaaaaaaaaa",
"aaaaaaaaaaaaaaaaaaaa=-wwwt--11111111;:11--aaaaaaaaaaaaaaaaaaaaaa",
"aaaaaaaaaaaaaaaaaaaa--twww=*11111111;:11-=aaaaaaaaaaaaaaaaaaaaaa",
"aaaaaaaaaaaaaaaaaaaa--wwww-:11111111;:11-=aaaaaaaaaaaaaaaaaaaaaa",
"aaaaaaaaaaaaaaaaaaaa-*wwww-:11111111;:11-=aaaaaaaaaaaaaaaaaaaaaa",
"aaaaaaaaaaaaaaaaaaaa=-wwww=*11111111;:11--aaaaaaaaaaaaaaaaaaaaaa",
"aaaaaaaaaaaaaaaaaaaa--wwww-*11111111:;11-=aaaaaaaaaaaaaaaaaaaaaa",
"aaaaaaaaaaaaaaaaaaaa--twww=-11111111;:11-=aaaaaaaaaaaaaaaaaaaaaa",
"aaaaaaaaaaaaaaaaaaaa=-wwww-:11111111;:11-8aaaaaaaaaaaaaaaaaaaaaa",
"aaaaaaaaaaaaaaaaaaaa--twww=-11111111;:11-=aaaaaaaaaaaaaaaaaaaaaa",
"aaaaaaaaaaaaaaaaaaaa--wwww:-11111111;:11-=aaaaaaaaaaaaaaaaaaaaaa",
"aaaaaaaaaaaaaaaaaaaa-*wwww-:11111111;:11--aaaaaaaaaaaaaaaaaaaaaa",
"aaaaaaaaaaaaaaaaaaaa=*wwww=-11111111;:11-=aaaaaaaaaaaaaaaaaaaaaa",
"aaaaaaaaaaaaaaaaaaaa--wwww-:11111111;:11-=aaaaaaaaaaaaaaaaaaaaaa",
"aaaaaaaaaaaaaaaaaaaa-=wwww==,1111111-=,1=-aaaaaaaaaaaaaaaaaaaaaa",
"aaaaaaaaaaaaaaaaaaaa==www0:;11>11111::1,-=aaaaaaaaaaaaaaaaaaaaaa",
"aaaaaaaaaaaaaaaaaaaa*:ww::wy&%21126:>>=-==aaaaaaaaaaaaaaaaaaaaaa",
"aaaaaaaaaaaaaaaaaaaa-=ww;=ww9:1111;:11:--%aaaaaaaaaaaaaaaaaaaaaa",
"aaaaaaaaaaaaaaaaaaaaaa=-wwe000:::;1121=:aaaaaaaaaaaaaaaaaaaaaaaa",
"aaaaaaaaaaaaaaaaaaaaaa-:ywq0ye:;;;1111=;aaaaaaaaaaaaaaaaaaaaaaaa",
"aaaaaaaaaaaaaaaaaaaaaa=:w0y0ww<1211<1,*-aaaaaaaaaaaaaaaaaaaaaaaa",
"aaaaaaaaaaaaaaaaaaaaaa:=we0tww11121211=;aaaaaaaaaaaaaaaaaaaaaaaa",
"aaaaaaaaaaaaaaaaaaaaaaaa=;ww1<111111-=@O.OXOXO.XX@XXaaaaaaaaaaaa",
"aaaaaaaaaaaaaaaaaaaaaaaa;-wq1<11>111-=X$O.$.XXXXO$X$aaaaaaaaaaaa",
"aaaaaaaaaaaaaaaaaaaaaaaa:=1111,<111,*:X+X#.OXXXXX.X.X@XOaaaaaaaa",
"aaaaaaaaaaaaaaaaaaaaaaaa=;1,1,212>11=:++O.X$XX$XX@XOXO.Xaaaaaaaa",
"aaaaaaaaaaaaaaaaaaaaaaaaaa*:<1>111-=OOooXXXXXXXXO.XXXXaaaaaaaaaa",
"aaaaaaaaaaaaaaaaaaaaaaaaaa-:111,11=7Oo$OXXXXX$XXXOX$XXaaaaaaaaaa",
"aaaaaaaaaaaaaaaaaaaaaaaaaaaa8%=:;=X# +XX.XX$XXaaaaaaaaaaaaaaaaaa",
"aaaaaaaaaaaaaaaaaaaaaaaaaaaa=-=-*;XOOoX.OO.XXXaaaaaaaaaaaaaaaaaa",
"aaaaaaaaaaaaaaaaaaaaaaaaaaaaaaaaaaaaaaaaaaaaaaaaaaaaaaaaaaaaaaaa",
"aaaaaaaaaaaaaaaaaaaaaaaaaaaaaaaaaaaaaaaaaaaaaaaaaaaaaaaaaaaaaaaa",
"aaaaaaaaaaaaaaaaaaaaaaaaaaaaaaaaaaaaaaaaaaaaaaaaaaaaaaaaaaaaaaaa",
"aaaaaaaaaaaaaaaaaaaaaaaaaaaaaaaaaaaaaaaaaaaaaaaaaaaaaaaaaaaaaaaa",
"aaaaaaaaaaaaaaaaaaaaaaaaaaaaaaaaaaaaaaaaaaaaaaaaaaaaaaaaaaaaaaaa",
"aaaaaaaaaaaaaaaaaaaaaaaaaaaaaaaaaaaaaaaaaaaaaaaaaaaaaaaaaaaaaaaa",
"aaaaaaaaaaaaaaaaaaaaaaaaaaaaaaaaaaaaaaaaaaaaaaaaaaaaaaaaaaaaaaaa",
"aaaaaaaaaaaaaaaaaaaaaaaaaaaaaaaaaaaaaaaaaaaaaaaaaaaaaaaaaaaaaaaa"
};
