/* XPM */
static char *result[] = {
/* columns rows colors chars-per-pixel */
"64 64 41 1 ",
"  c #555E5B",
". c #5C5D5D",
"X c #69555E",
"o c #625B5D",
"O c #55605C",
"+ c #5B605C",
"@ c #6B5760",
"# c #625E61",
"$ c gray38",
"% c #B8335E",
"& c #AF3661",
"* c #AE3C64",
"= c #B33662",
"- c #BB3664",
"; c #B53B65",
": c #BA3A66",
"> c #B63D68",
", c #BB3C69",
"< c #F50256",
"1 c #FD0056",
"2 c #F5045A",
"3 c #FE015A",
"4 c #F5085A",
"5 c #C03667",
"6 c #C43768",
"7 c #C03969",
"8 c #AE4067",
"9 c #AA4469",
"0 c #B04068",
"q c #BA426A",
"w c #C3416D",
"e c #FF5693",
"r c #F65D93",
"t c #FD5B95",
"y c #FF5E98",
"u c #FB6097",
"i c #FD629A",
"p c #FFF6FF",
"a c #F4FFFE",
"s c #FEFDFE",
"d c None",
/* pixels */
"dddddddddddddddddddddddddddddddddddddddddddddddddddddddddddddddd",
"dddddddddddddddddddddddddddddddddddddddddddddddddddddddddddddddd",
"dddddddddddddddddddddddddddddddddddddddddddddddddddddddddddddddd",
"dddddddddddddddddddddddddddddddddddddddddddddddddddddddddddddddd",
"dddddddddddddddddddddddddddd;-q=-;dddddddddddddddddddddddddddddd",
"dddddddddddddddddddddddddddd;5;,q;dddddddddddddddddddddddddddddd",
"dddddddddddddddddddddddddd;,tu;:ss;;dddddddddddddddddddddddddddd",
"dddddddddddddddddddddddddd,7tt;,ss;-dddddddddddddddddddddddddddd",
"dddddddddddddddddddddddddd>>tr,>sa%8dddddddddddddddddddddddddddd",
"dddddddddddddddddddddddddd,=ty--ss-%dddddddddddddddddddddddddddd",
"dddddddddddddddddddddddd->eiet,;ssss;;dddddddddddddddddddddddddd",
"dddddddddddddddddddddddd,=yett7;ssas;;dddddddddddddddddddddddddd",
"dddddddddddddddddddddddd;,ri;>:;::ps:;dddddddddddddddddddddddddd",
"dddddddddddddddddddddddd-7yr::;,*;as;:dddddddddddddddddddddddddd",
"dddddddddddddddddddddddd,=,:tr,;33:,:;dddddddddddddddddddddddddd",
"dddddddddddddddddddddddd,-,*ty=731;=7:dddddddddddddddddddddddddd",
"dddddddddddddddddddddddd;;ttuy;:11sa,:dddddddddddddddddddddddddd",
"dddddddddddddddddddddddd*:titt9-31ss%;dddddddddddddddddddddddddd",
"dddddddddddddddddddddd;;ette335613asss=,dddddddddddddddddddddddd",
"dddddddddddddddddddddd:;ttuu11;,31ssss;;dddddddddddddddddddddddd",
"dddddddddddddddddddddd7;utty33>>3334sa-:dddddddddddddddddddddddd",
"dddddddddddddddddddddd%;turt11>>3331ss:,dddddddddddddddddddddddd",
"dddddddddddddddddddddd,,ttyt33=,4331ss>;dddddddddddddddddddddddd",
"dddddddddddddddddddddd;;tttu33>,3313ss7>dddddddddddddddddddddddd",
"dddddddddddddddddddddd;,utir33-,3233ss;:dddddddddddddddddddddddd",
"dddddddddddddddddddddd;;ttet33,&3333ss*:dddddddddddddddddddddddd",
"dddddddddddddddddddddd::ut3333>,333<ss;-dddddddddddddddddddddddd",
"dddddddddddddddddddddd%;ry333<;,3333ssq;dddddddddddddddddddddddd",
"dddddddddddddddddddddd::yr3333,=3331ss;-dddddddddddddddddddddddd",
"dddddddddddddddddddddd::ry3333-,3334ps%;dddddddddddddddddddddddd",
"dddddddddddddddddddddd;:tr2233>>3333117:dddddddddddddddddddddddd",
"dddddddddddddddddddddd:,yt3333,>233131*:dddddddddddddddddddddddd",
"dddddddddddddddddddddd;:yt3333;:333333:,dddddddddddddddddddddddd",
"dddddddddddddddddddddd;:tt3333;,333333-;dddddddddddddddddddddddd",
"dddddddddddddddddddddd::ty3333,;333333,:dddddddddddddddddddddddd",
"dddddddddddddddddddddd;:tt3333=,333333-;dddddddddddddddddddddddd",
"dddddddddddddddddddddd::ty3333,;333313:;dddddddddddddddddddddddd",
"dddddddddddddddddddddd;:tt3333;,333313:;dddddddddddddddddddddddd",
"dddddddddddddddddddddd;>ty3333;:333313::dddddddddddddddddddddddd",
"dddddddddddddddddddddd;;tt3333;:333333::dddddddddddddddddddddddd",
"dddddddddddddddddddddd:;ty333<,>333333->dddddddddddddddddddddddd",
"dddddddddddddddddddddd-:yr3333,-333333;>dddddddddddddddddddddddd",
"dddddddddddddddddddddddd=,3333:>342<,;dddddddddddddddddddddddddd",
"dddddddddddddddddddddddd,;2333-;3333-;dddddddddddddddddddddddddd",
"dddddddddddddddddddddddd-::-43;:33;;-,dddddddddddddddddddddddddd",
"dddddddddddddddddddddddd;=,,41;:33,;;;dddddddddddddddddddddddddd",
"dddddddddddddddddddddddd-qet,-:;,733-wdddddddddddddddddddddddddd",
"dddddddddddddddddddddddd;-ti-,:->=3<,=dddddddddddddddddddddddddd",
"dddddddddddddddddddddddd-:yt23>:33337;. ............dddddddddddd",
"dddddddddddddddddddddddd;,ri13,;3343-;o...#.o....$.$dddddddddddd",
"dddddddddddddddddddddddddd,:33;-33>:#..O.$..........o$.+dddddddd",
"dddddddddddddddddddddddddd>-11;,33>:..o....$..$..$......dddddddd",
"dddddddddddddddddddddddddd;>33::33;;.+o...............dddddddddd",
"dddddddddddddddddddddddddd>,33:-33;0X.o+.....$....o$..dddddddddd",
"dddddddddddddddddddddddddddd>=;:>;X@ ......$..dddddddddddddddddd",
"dddddddddddddddddddddddddddd>>>--, .. o.......dddddddddddddddddd",
"dddddddddddddddddddddddddddddddddddddddddddddddddddddddddddddddd",
"dddddddddddddddddddddddddddddddddddddddddddddddddddddddddddddddd",
"dddddddddddddddddddddddddddddddddddddddddddddddddddddddddddddddd",
"dddddddddddddddddddddddddddddddddddddddddddddddddddddddddddddddd",
"dddddddddddddddddddddddddddddddddddddddddddddddddddddddddddddddd",
"dddddddddddddddddddddddddddddddddddddddddddddddddddddddddddddddd",
"dddddddddddddddddddddddddddddddddddddddddddddddddddddddddddddddd",
"dddddddddddddddddddddddddddddddddddddddddddddddddddddddddddddddd"
};
