/* XPM */
static char *result[] = {
/* columns rows colors chars-per-pixel */
"64 64 12 1 ",
"  c black",
". c #2F2F2F",
"X c #332D38",
"o c #0E6A67",
"O c #534841",
"+ c #A87514",
"@ c #BB8E36",
"# c #C59D30",
"$ c #EAAF3D",
"% c #9B9B9B",
"& c #F7AF82",
"* c None",
/* pixels */
"****************************************************************",
"****************************************************************",
"****************************************************************",
"****************************************************************",
"****************************************************************",
"****************************************************************",
"**************************XXXXXXXX******************************",
"**************************XXXXXXXX******************************",
"************************XXXXXXXXXXXX****************************",
"************************XXXXXXXXXXXX****************************",
"************************oooooooooooo****************************",
"************************oooooooooooo****************************",
"************************XXXXooooXXXX****************************",
"************************XXXXooooXXXX****************************",
"************************ooooXXooXXXX****************************",
"************************ooooXXooXXXX****************************",
"**********************oo**XXooXXXX******************************",
"**********************oo**XXooXXXX******************************",
"********************....%%oooooooo  ****************************",
"********************....%%oooooooo  ****************************",
"******************....%%XXXXXXXX  XXOOOO************************",
"******************....%%XXXXXXXX  XXOOOO************************",
"******************%%%%OOXXXXXX++  XXOOOOOO**********************",
"******************%%%%OOXXXXXX++  XXOOOOOO**********************",
"******************OOOOOOXXXXXX++  XXOOOOOO************@@++******",
"******************OOOOOOXXXXXX++  XXOOOOOO************@@++******",
"****************OOOOOO**XXXX++  XXXXOOOOOOOO************@@$$****",
"****************OOOOOO**XXXX++  XXXXOOOOOOOO************@@$$****",
"**************&&ooOOOO**XXXX++  XXXX**OOOOOO**************++****",
"**************&&ooOOOO**XXXX++  XXXX**OOOOOO**************++****",
"**************&&&&oo****XX++  XX  XX**OOOOOO****$$++****$$@@****",
"**************&&&&oo****XX++  XX  XX**OOOOOO****$$++****$$@@****",
"************************XX  XXXXXX  ****OOoooo####@@$$@@++******",
"************************XX  XXXXXX  ****OOoooo####@@$$@@++******",
"************************  %%XXXXXXXX******oo&&&&##**************",
"************************  %%XXXXXXXX******oo&&&&##**************",
"************************XX          ********&&&&****************",
"************************XX          ********&&&&****************",
"**********************XXXXXXXXXXXXXXXX**************************",
"**********************XXXXXXXXXXXXXXXX**************************",
"********************XXXXXXXXooXXXXXXXX**************************",
"********************XXXXXXXXooXXXXXXXX**************************",
"********************ooXXooooOOooooXXXXoo************************",
"********************ooXXooooOOooooXXXXoo************************",
"**********************ooOOOOOOOOOOoooo**************************",
"**********************ooOOOOOOOOOOoooo**************************",
"**********************%%OOOO%%OOOOOOOO**************************",
"**********************%%OOOO%%OOOOOOOO**************************",
"**********************..%%%%..OO%%%%OO**************************",
"**********************..%%%%..OO%%%%OO**************************",
"************************....**%%....%%**************************",
"************************....**%%....%%**************************",
"******************************........**************************",
"******************************........**************************",
"********************************......**************************",
"********************************......**************************",
"********************************..%%..**************************",
"********************************..%%..**************************",
"********************************%%%%%%**************************",
"********************************%%%%%%**************************",
"****************************************************************",
"****************************************************************",
"****************************************************************",
"****************************************************************"
};
