/* XPM */
static char *result[] = {
/* columns rows colors chars-per-pixel */
"64 64 13 1 ",
"  c black",
". c #2F2F2F",
"X c #332D38",
"o c #0E6A67",
"O c #534841",
"+ c #A87514",
"@ c #BB8E36",
"# c #C59D30",
"$ c #EAAF3D",
"% c #9B9B9B",
"& c #D1AC95",
"* c #F7AF82",
"= c None",
/* pixels */
"================================================================",
"================================================================",
"================================================================",
"================================================================",
"================================================================",
"=======================XXXXXXXX=================================",
"=======================XXXXXXXX=================================",
"=====================oooooooooooo===============================",
"=====================oooooooooooo===============================",
"=======================**XXXXXXXXoooo===========================",
"=======================**XXXXXXXXoooo===========================",
"=====================XXXXXXXXXXXXoo==oo=========================",
"=====================XXXXXXXXXXXXoo==oo=========================",
"=====================XXXXXXXXXXXX==oo===========================",
"=====================XXXXXXXXXXXX==oo===========================",
"=======================XXXXXXXX=================================",
"=======================XXXXXXXX=================================",
"===================....oo&&oo  XX===============================",
"===================....oo&&oo  XX===============================",
"=================....%%oooo  XXOOOO==================@@++=======",
"=================....%%oooo  XXOOOO==================@@++=======",
"=================%%%%XXXXoo  OOOOOOOO============@@++$$@@$$=====",
"=================%%%%XXXXoo  OOOOOOOO============@@++$$@@$$=====",
"=================OOOOXXXXoo  XXOOOOOOOO========++$$======++=====",
"=================OOOOXXXXoo  XXOOOOOOOO========++$$======++=====",
"=================OOOOXXXX  XXXXXXOOOOOO========@@========@@=====",
"=================OOOOXXXX  XXXXXXOOOOOO========@@========@@=====",
"===============OOOOOOOOXX  ooXXXXXXOOOOOO======$$======$$=======",
"===============OOOOOOOOXX  ooXXXXXXOOOOOO======$$======$$=======",
"===============ooooOO==XXXX  XXXX  XXOOOOoo====@@++=============",
"===============ooooOO==XXXX  XXXX  XXOOOOoo====@@++=============",
"=============oo****oo====  oo    XXXX==oooooo####$$=============",
"=============oo****oo====  oo    XXXX==oooooo####$$=============",
"=============********====oo%%ooXXXX  ==oooo****##===============",
"=============********====oo%%ooXXXX  ==oooo****##===============",
"===============****======          XXXX==******=================",
"===============****======          XXXX==******=================",
"=======================XXXXooOOooXXXXXXXX=======================",
"=======================XXXXooOOooXXXXXXXX=======================",
"===================XXXXooooOOOOooXXXXXXXXXXXXoo=================",
"===================XXXXooooOOOOooXXXXXXXXXXXXoo=================",
"=================XXooooOOOOOOOOOOooXXXXXXXXoo===================",
"=================XXooooOOOOOOOOOOooXXXXXXXXoo===================",
"=================ooOOOOOOOOOO====ooooXXXXooOO===================",
"=================ooOOOOOOOOOO====ooooXXXXooOO===================",
"===================OO%%%%OO========ooooooOOOOOO=================",
"===================OO%%%%OO========ooooooOOOOOO=================",
"===================%%......==========OOOOOOOO%%..===============",
"===================%%......==========OOOOOOOO%%..===============",
"===================........==============%%%%......=============",
"===================........==============%%%%......=============",
"=====================......%%==============..........%%=========",
"=====================......%%==============..........%%=========",
"=======================....%%====================....%%=========",
"=======================....%%====================....%%=========",
"=======================....%%======================..%%=========",
"=======================....%%======================..%%=========",
"=======================..%%========================..%%=========",
"=======================..%%========================..%%=========",
"================================================================",
"================================================================",
"================================================================",
"================================================================",
"================================================================"
};
