/* XPM */
static char *result[] = {
/* columns rows colors chars-per-pixel */
"64 64 13 1 ",
"  c black",
". c #2F2F2F",
"X c #332D38",
"o c #0E6A67",
"O c #534841",
"+ c #A87514",
"@ c #BB8E36",
"# c #C59D30",
"$ c #EAAF3D",
"% c #9B9B9B",
"& c #D1AC95",
"* c #F7AF82",
"= c None",
/* pixels */
"================================================================",
"================================================================",
"================================================================",
"================================================================",
"================================================================",
"================================================================",
"================================================================",
"================================================================",
"================================XXXXXXXX========================",
"================================XXXXXXXX========================",
"==============================oooooooooooo======================",
"==============================oooooooooooo======================",
"==========================ooooXXXXXXXX**========================",
"==========================ooooXXXXXXXX**========================",
"========================oo==ooXXXXXXXXXXXX======================",
"========================oo==ooXXXXXXXXXXXX======================",
"==========================oo==XXXXXXXXXXXX======================",
"==========================oo==XXXXXXXXXXXX======================",
"================================XXXXXXXX========================",
"================================XXXXXXXX========================",
"==============================XX  oo&&oo....====================",
"==============================XX  oo&&oo....====================",
"======++@@==================OOOOXX  oooo%%....==================",
"======++@@==================OOOOXX  oooo%%....==================",
"====$$@@$$++@@============OOOOOOOO  ooXXXX%%%%==================",
"====$$@@$$++@@============OOOOOOOO  ooXXXX%%%%==================",
"====++======$$++========OOOOOOOOXX  ooXXXXOOOO==================",
"====++======$$++========OOOOOOOOXX  ooXXXXOOOO==================",
"====@@========@@========OOOOOOXXXXXX  XXXXOOOO==================",
"====@@========@@========OOOOOOXXXXXX  XXXXOOOO==================",
"======$$======$$======OOOOOOXXXXXXoo  XXOOOOOOOO================",
"======$$======$$======OOOOOOXXXXXXoo  XXOOOOOOOO================",
"============++@@====ooOOOOXX  XXXX  XXXX==OOoooo================",
"============++@@====ooOOOOXX  XXXX  XXXX==OOoooo================",
"============$$####oooooo==XXXX    oo  ====oo****oo==============",
"============$$####oooooo==XXXX    oo  ====oo****oo==============",
"==============##****oooo==  XXXXoo%%oo====********==============",
"==============##****oooo==  XXXXoo%%oo====********==============",
"================******==XXXX          ======****================",
"================******==XXXX          ======****================",
"======================XXXXXXXXooOOooXXXX========================",
"======================XXXXXXXXooOOooXXXX========================",
"================ooXXXXXXXXXXXXooOOOOooooXXXX====================",
"================ooXXXXXXXXXXXXooOOOOooooXXXX====================",
"==================ooXXXXXXXXooOOOOOOOOOOooooXX==================",
"==================ooXXXXXXXXooOOOOOOOOOOooooXX==================",
"==================OOooXXXXoooo====OOOOOOOOOOoo==================",
"==================OOooXXXXoooo====OOOOOOOOOOoo==================",
"================OOOOOOoooooo========OO%%%%OO====================",
"================OOOOOOoooooo========OO%%%%OO====================",
"==============..%%OOOOOOOO==========......%%====================",
"==============..%%OOOOOOOO==========......%%====================",
"============......%%%%==============........====================",
"============......%%%%==============........====================",
"========%%..........==============%%......======================",
"========%%..........==============%%......======================",
"========%%....====================%%....========================",
"========%%....====================%%....========================",
"========%%..======================%%....========================",
"========%%..======================%%....========================",
"========%%..========================%%..========================",
"========%%..========================%%..========================",
"================================================================",
"================================================================"
};
