/* XPM */
static char *result[] = {
/* columns rows colors chars-per-pixel */
"64 64 12 1 ",
"  c black",
". c #2F2F2F",
"X c #332D38",
"o c #0E6A67",
"O c #534841",
"+ c #A87514",
"@ c #BB8E36",
"# c #C59D30",
"$ c #EAAF3D",
"% c #9B9B9B",
"& c #F7AF82",
"* c None",
/* pixels */
"****************************************************************",
"****************************************************************",
"****************************************************************",
"****************************************************************",
"****************************************************************",
"****************************************************************",
"******************************XXXXXXXX**************************",
"******************************XXXXXXXX**************************",
"****************************XXXXXXXXXXXX************************",
"****************************XXXXXXXXXXXX************************",
"****************************oooooooooooo************************",
"****************************oooooooooooo************************",
"****************************XX&&&&&&&&XX************************",
"****************************XX&&&&&&&&XX************************",
"****************************XXXXXXXXXXXX************************",
"****************************XXXXXXXXXXXX************************",
"******************************XXXXXXXX**************************",
"******************************XXXXXXXX**************************",
"**************************OO  oo&&&&oo%%....********************",
"**************************OO  oo&&&&oo%%....********************",
"************************OOOO  oo&&ooXX%%......******************",
"************************OOOO  oo&&ooXX%%......******************",
"**********************OOOOOO  XXooooXXXX%%....%%****************",
"**********************OOOOOO  XXooooXXXX%%....%%****************",
"**********************OOOOOOXX  ooXXXXXXOO%%%%******************",
"**********************OOOOOOXX  ooXXXXXXOO%%%%******************",
"********************OOOOOO**XX  ooXXXXXXOOOOOOOO****************",
"********************OOOOOO**XX  ooXXXXXXOOOOOOOO****************",
"********************ooOOOO**XX    XXXXXX**OOOOOO****************",
"********************ooOOOO**XX    XXXXXX**OOOOOO****************",
"******************##&&oo****  ooXX  XXXX**OOOOOOOO**************",
"******************##&&oo****  ooXX  XXXX**OOOOOOOO**************",
"**********++@@$$@@####******XXooXXXX  oo****OOOOoo**************",
"**********++@@$$@@####******XXooXXXX  oo****OOOOoo**************",
"********@@$$****++$$********ooXXoooo%%  ****OOoooo**************",
"********@@$$****++$$********ooXXoooo%%  ****OOoooo**************",
"********++******************          XX****oooo&&**************",
"********++******************          XX****oooo&&**************",
"********$$@@**************XXXXXXooXXXXXXXX**&&&&&&**************",
"********$$@@**************XXXXXXooXXXXXXXX**&&&&&&**************",
"**********++@@**********XXXXXXooOOooXXXXXX**&&&&****************",
"**********++@@**********XXXXXXooOOooXXXXXX**&&&&****************",
"************************ooXXooOOOOOOooXXXXXX********************",
"************************ooXXooOOOOOOooXXXXXX********************",
"**************************ooOOOOOOOOOOooooXX********************",
"**************************ooOOOOOOOOOOooooXX********************",
"**************************%%OOOO%%OOOOOOOOoo********************",
"**************************%%OOOO%%OOOOOOOOoo********************",
"**************************..%%%%..OO%%%%OO**********************",
"**************************..%%%%..OO%%%%OO**********************",
"****************************....**%%....%%**********************",
"****************************....**%%....%%**********************",
"**********************************........**********************",
"**********************************........**********************",
"************************************......**********************",
"************************************......**********************",
"************************************..%%..**********************",
"************************************..%%..**********************",
"************************************%%%%%%**********************",
"************************************%%%%%%**********************",
"****************************************************************",
"****************************************************************",
"****************************************************************",
"****************************************************************"
};
