/* XPM */
static char *result[] = {
/* columns rows colors chars-per-pixel */
"64 64 17 1 ",
"  c #2D2A27",
". c #7F0F0F",
"X c #5C2F2F",
"o c #296658",
"O c #B94848",
"+ c #358674",
"@ c #609266",
"# c #57B562",
"$ c #A39374",
"% c #3F008C",
"& c #5B1CA8",
"* c #763AC0",
"= c #AA78E9",
"- c #58A291",
"; c #D6CAB2",
": c #FCEDD1",
"> c None",
/* pixels */
">>>>>>>>>>    >>  >>  >>  >>  >>>>  >>  >>  >>  >>    >>>>>>>>>>",
">>>>>>>>>>    >>  >>  >>  >>  >>>>  >>  >>  >>  >>    >>>>>>>>>>",
">>>>>>>>>>>>                                        >>>>>>>>>>>>",
">>>>>>>>>>>>                                        >>>>>>>>>>>>",
">>>>>>>>>>>>>>++++oooo++--oo++oo----oo++++oo--++-->>>>>>>>>>>>>>",
">>>>>>>>>>>>>>++++oooo++--oo++oo----oo++++oo--++-->>>>>>>>>>>>>>",
">>>>>>>>>>++++--oo--++++oooo++oooo++oooo++++oooo++--++>>>>>>>>>>",
">>>>>>>>>>++++--oo--++++oooo++oooo++oooo++++oooo++--++>>>>>>>>>>",
">>>>>>--++++oooooo++++oooo++----oo++++oooo--++oooooo++++++>>>>>>",
">>>>>>--++++oooooo++++oooo++----oo++++oooo--++oooooo++++++>>>>>>",
">>++++++--oooo++++++oo--oo++++oo--++++oooooo++++++oooo----++++>>",
">>++++++--oooo++++++oo--oo++++oo--++++oooooo++++++oooo----++++>>",
"    oooooo++++----oooooo--++oooooooo++++oooooo++++--++oooooo    ",
"    oooooo++++----oooooo--++oooooooo++++oooooo++++--++oooooo    ",
">>>>                                                        >>>>",
">>>>                                                        >>>>",
">>>>>>        XX  XX  XX  XX  XX  XX  XX  XX  XX  XX      >>>>>>",
">>>>>>        XX  XX  XX  XX  XX  XX  XX  XX  XX  XX      >>>>>>",
">>>>>>OOOO..XXXX==&&**%%%%======&&&&&&****&&%%==XXXXOOOOOO>>>>>>",
">>>>>>OOOO..XXXX==&&**%%%%======&&&&&&****&&%%==XXXXOOOOOO>>>>>>",
">>>>>>OOOO..XX&&**%%%%&&====&&****&&&&==**&&&&&&%%XXOOOOOO>>>>>>",
">>>>>>OOOO..XX&&**%%%%&&====&&****&&&&==**&&&&&&%%XXOOOOOO>>>>>>",
">>>>>>OOOO..&&&&%%%%&&==**********%%&&&&====&&&&%%%%..OOOO>>>>>>",
">>>>>>OOOO..&&&&%%%%&&==**********%%&&&&====&&&&%%%%..OOOO>>>>>>",
">>>>>>OOOO..%%&&%%&&&&==%%&&**&&&&**%%**&&==**&&%%%%..OOOO>>>>>>",
">>>>>>OOOO..%%&&%%&&&&==%%&&**&&&&**%%**&&==**&&%%%%..OOOO>>>>>>",
">>>>>>OOOO..**%%**====****&&&&&&&&&&%%**&&==**&&==&&..OOOO>>>>>>",
">>>>>>OOOO..**%%**====****&&&&&&&&&&%%**&&==**&&==&&..OOOO>>>>>>",
">>>>>>OOOO..******==&&%%****&&**&&&&******====**%%==..OOOO>>>>>>",
">>>>>>OOOO..******==&&%%****&&**&&&&******====**%%==..OOOO>>>>>>",
">>>>>>OOOO..**======****%%&&&&%%%%%%&&%%**&&==&&**==..OOOO>>>>>>",
">>>>>>OOOO..**======****%%&&&&%%%%%%&&%%**&&==&&**==..OOOO>>>>>>",
">>>>>>OOOO..**==**==**%%&&&&%%%%%%%%&&%%**==**&&****..OOOO>>>>>>",
">>>>>>OOOO..**==**==**%%&&&&%%%%%%%%&&%%**==**&&****..OOOO>>>>>>",
">>>>>>OOOO..&&&&**==**%%&&&&%%%%%%%%%%&&**====**&&**..OOOO>>>>>>",
">>>>>>OOOO..&&&&**==**%%&&&&%%%%%%%%%%&&**====**&&**..OOOO>>>>>>",
">>>>>>OOOO..%%**&&&&%%****&&%%%%%%%%**&&**%%==**&&&&..OOOO>>>>>>",
">>>>>>OOOO..%%**&&&&%%****&&%%%%%%%%**&&**%%==**&&&&..OOOO>>>>>>",
">>>>>>OO....%%%%**&&&&****&&%%%%%%&&&&**%%====****%%..OOOO>>>>>>",
">>>>>>OO....%%%%**&&&&****&&%%%%%%&&&&**%%====****%%..OOOO>>>>>>",
">>>>>>OO....&&%%&&&&==**%%**&&%%&&&&&&**&&==****%%==....OO>>>>>>",
">>>>>>OO....&&%%&&&&==**%%**&&%%&&&&&&**&&==****%%==....OO>>>>>>",
">>>>>>OO....%%%%&&&&&&**%%**&&&&&&&&&&&&====&&%%%%==....OO>>>>>>",
">>>>>>OO....%%%%&&&&&&**%%**&&&&&&&&&&&&====&&%%%%==....OO>>>>>>",
">>>>>>OO....==%%%%==&&&&****&&&&%%&&**&&==**%%**==&&....OO>>>>>>",
">>>>>>OO....==%%%%==&&&&****&&&&%%&&**&&==**%%**==&&....OO>>>>>>",
">>>>>>......XX==%%%%======%%**&&******====%%**&&&&XX....OO>>>>>>",
">>>>>>......XX==%%%%======%%**&&******====%%**&&&&XX....OO>>>>>>",
">>>>>>......XXXX&&%%%%%%====******&&**%%%%%%&&%%XXXX......>>>>>>",
">>>>>>......XXXX&&%%%%%%====******&&**%%%%%%&&%%XXXX......>>>>>>",
">>>>>>..::::::;;::::::::$$::$$$$$$::::::;;;;::::::$$::::..>>>>>>",
">>>>>>..::::::;;::::::::$$::$$$$$$::::::;;;;::::::$$::::..>>>>>>",
">>>>>>;;;;;;;;;;;;;;;;;;;;;;;;;;;;;;;;;;$$$$;;;;;;;;$$$$;;>>>>>>",
">>>>>>;;;;;;;;;;;;;;;;;;;;;;;;;;;;;;;;;;$$$$;;;;;;;;$$$$;;>>>>>>",
">>>>$$$$$$$$$$$$$$::::$$$$$$::$$$$::::$$::::$$$$$$$$$$::::$$>>>>",
">>>>$$$$$$$$$$$$$$::::$$$$$$::$$$$::::$$::::$$$$$$$$$$::::$$>>>>",
">>;;;;;;::$$$$$$::::;;;;;;;;;;;;;;;;;;;;;;$$;;;;;;;;;;;;;;;;;;>>",
">>;;;;;;::$$$$$$::::;;;;;;;;;;;;;;;;;;;;;;$$;;;;;;;;;;;;;;;;;;>>",
"$$$$$$$$$$$$$$$$$$$$::::::::$$$$$$::$$$$$$$$$$::$$::::$$$$::$$$$",
"$$$$$$$$$$$$$$$$$$$$::::::::$$$$$$::$$$$$$$$$$::$$::::$$$$::$$$$",
">>>>>>>>>>>>>>>>>>>>>>>>>>>>>>>>>>>>>>>>>>>>>>>>>>>>>>>>>>>>>>>>",
">>>>>>>>>>>>>>>>>>>>>>>>>>>>>>>>>>>>>>>>>>>>>>>>>>>>>>>>>>>>>>>>",
">>>>>>>>>>>>>>>>>>>>>>>>>>>>>>>>>>>>>>>>>>>>>>>>>>>>>>>>>>>>>>>>",
">>>>>>>>>>>>>>>>>>>>>>>>>>>>>>>>>>>>>>>>>>>>>>>>>>>>>>>>>>>>>>>>"
};
