/* XPM */
static char *result[] = {
/* columns rows colors chars-per-pixel */
"64 64 6 1 ",
"  c #609266",
". c #57B562",
"X c #F2BC77",
"o c #E2F277",
"O c #67BFF7",
"+ c #F695E7",
/* pixels */
"....  ....................................................  ....",
"....  ....................................................  ....",
"..........................................................  ....",
"..........................................................  ....",
"................................................................",
"................................................................",
"................................................................",
"................................................................",
"................................................................",
"................................................................",
"................................................  ..............",
"................................................  ..............",
"..................  ..........................  ................",
"..................  ..........................  ................",
"....................  ......................    ................",
"....................  ......................    ................",
"......................  ....................  ..................",
"......................  ....................  ..................",
"..............................................................  ",
"..............................................................  ",
"  ............................++..............................  ",
"  ............................++..............................  ",
"  ..........................++oo++..............................",
"  ..........................++oo++..............................",
"..  ..........................++................................",
"..  ..........................++................................",
"................................................................",
"................................................................",
"................................................................",
"................................................................",
"................................................................",
"................................................................",
"..........    ..................................................",
"..........    ..................................................",
"............  ............................  ....................",
"............  ............................  ....................",
"..............  ............................  ....  ............",
"..............  ............................  ....  ............",
"..............  ............................  ..    ............",
"..............  ............................  ..    ............",
"................................................  ..............",
"................................................  ..............",
"................................................................",
"................................................................",
"  ..............................................................",
"  ..............................................................",
"..............................................................  ",
"..............................................................  ",
"......OO..........................  ........................  ..",
"......OO..........................  ........................  ..",
"....OOooOO........................  ......XX....................",
"....OOooOO........................  ......XX....................",
"......OO........................    ....XXooXX..................",
"......OO........................    ....XXooXX..................",
"..............................    ........XX....................",
"..............................    ........XX....................",
"................................................................",
"................................................................",
"......  ..............................................  ........",
"......  ..............................................  ........",
"....    ................................................  ......",
"....    ................................................  ......",
"....  ....................................................  ....",
"....  ....................................................  ...."
};
