/* XPM */
static char *result[] = {
/* columns rows colors chars-per-pixel */
"64 64 4 1 ",
"  c #609266",
". c #57B562",
"X c #BC9D74",
"o c #E1C5A1",
/* pixels */
"................................................................",
"................................................................",
"..........  ..  ....    ....      ....    ......................",
"..........  ..  ....    ....      ....    ......................",
"  ..  ..  oo  oo  ..  oo    oo  oo  ..  oo  ..  ..  ............",
"  ..  ..  oo  oo  ..  oo    oo  oo  ..  oo  ..  ..  ............",
"oo  oo  oooooo  oo  oooo  oooooo  oo  oooooo  oo  oo  ..........",
"oo  oo  oooooo  oo  oooo  oooooo  oo  oooooo  oo  oo  ..........",
"  oooooo  oooooooooooooooooooooo  oooooooooooooooooooo    ......",
"  oooooo  oooooooooooooooooooooo  oooooooooooooooooooo    ......",
"ooooooooooooooooooooooooooooooooooooooooooooooXXoooo  oooo  ....",
"ooooooooooooooooooooooooooooooooooooooooooooooXXoooo  oooo  ....",
"ooooooooooooooooooooooooooooooooooooooooooooooooXXoooooo  ......",
"ooooooooooooooooooooooooooooooooooooooooooooooooXXoooooo  ......",
"XXooooooooooXXooooooooooooooooooooooooooooooooXXoooooooo  ......",
"XXooooooooooXXooooooooooooooooooooooooooooooooXXoooooooo  ......",
"ooXXooooooooXXooooooooooooooooooooooooooooooXXoooooooooooo  ....",
"ooXXooooooooXXooooooooooooooooooooooooooooooXXoooooooooooo  ....",
"ooXXooooooooooXXoooooooooooooooooooooooooooooooooooooooo  ......",
"ooXXooooooooooXXoooooooooooooooooooooooooooooooooooooooo  ......",
"XXooooooooooooXXooooooooooXXXXooooooooooooooooXXoooooooooo  ....",
"XXooooooooooooXXooooooooooXXXXooooooooooooooooXXoooooooooo  ....",
"ooooooooooXXXXooooooooooooooooXXooooooooooooooXXoooooooooooo  ..",
"ooooooooooXXXXooooooooooooooooXXooooooooooooooXXoooooooooooo  ..",
"oooooooooooooooooooooooooooooooooooooooooooooooooooooooooo    ..",
"oooooooooooooooooooooooooooooooooooooooooooooooooooooooooo    ..",
"ooooooooooXXooooooooooooooooooooooooooooooooXXoooooooooo  ......",
"ooooooooooXXooooooooooooooooooooooooooooooooXXoooooooooo  ......",
"ooooooooooooXXooooooooooXXooooooooooooooooooXXoooooooooooo  ....",
"ooooooooooooXXooooooooooXXooooooooooooooooooXXoooooooooooo  ....",
"ooooooooooooXXoooooooooooooooooooooooooooooooooooooooo    oo  ..",
"ooooooooooooXXoooooooooooooooooooooooooooooooooooooooo    oo  ..",
"ooooooooooooXXooooooooXXoooooooooooooooooooooooooooooooooo    ..",
"ooooooooooooXXooooooooXXoooooooooooooooooooooooooooooooooo    ..",
"ooooooooooooooooooooooXXoooooooooooooooooooooooooooooooooooo  ..",
"ooooooooooooooooooooooXXoooooooooooooooooooooooooooooooooooo  ..",
"ooooooooooooooooooooooXXooooooooooooooooooooooooooooooXXoo  ....",
"ooooooooooooooooooooooXXooooooooooooooooooooooooooooooXXoo  ....",
"ooXXooooooooooooooooooooXXooooooooooooXXooooooooooooooXX    ....",
"ooXXooooooooooooooooooooXXooooooooooooXXooooooooooooooXX    ....",
"XXooooooooooooooooooooooXXooooooooooooXXooooooooooooooXXoooo  ..",
"XXooooooooooooooooooooooXXooooooooooooXXooooooooooooooXXoooo  ..",
"ooooooooooooooooooooooooooXXooooooooooXXooooooooooooXXoooo    ..",
"ooooooooooooooooooooooooooXXooooooooooXXooooooooooooXXoooo    ..",
"ooooooooooooooooXXooooooooooooooooooXXoooooooooooooooooo  ......",
"ooooooooooooooooXXooooooooooooooooooXXoooooooooooooooooo  ......",
"ooooooooooooooooXXooooooooooooooooooXXooooooooooooooXXooXX  ....",
"ooooooooooooooooXXooooooooooooooooooXXooooooooooooooXXooXX  ....",
"ooooXXooooooooooXXooooooooooooooooXXooooooooooooooooooXX  oo  ..",
"ooooXXooooooooooXXooooooooooooooooXXooooooooooooooooooXX  oo  ..",
"ooooooXXoooooooooooooooooooooooooooooooooooooooooooooooooo  ....",
"ooooooXXoooooooooooooooooooooooooooooooooooooooooooooooooo  ....",
"ooooXXooooooooXXooooooooooXXoooooooooooooooooooooooooooooooo  ..",
"ooooXXooooooooXXooooooooooXXoooooooooooooooooooooooooooooooo  ..",
"ooooXXooooooooooXXooooooooXXooooooooooooXXXXooooXXoooo  oo  ....",
"ooooXXooooooooooXXooooooooXXooooooooooooXXXXooooXXoooo  oo  ....",
"ooooXXooooooooooooooooooooooXXooooooooooooooXXXXoooooooo  ......",
"ooooXXooooooooooooooooooooooXXooooooooooooooXXXXoooooooo  ......",
"ooooooXXooooooooooooooooooooXXooXXoooooooooooooooooooooooo  ....",
"ooooooXXooooooooooooooooooooXXooXXoooooooooooooooooooooooo  ....",
"ooooooXXooooooooXXooooooooooooXXoooooooooooooooooooooooo  ......",
"ooooooXXooooooooXXooooooooooooXXoooooooooooooooooooooooo  ......",
"ooooooooooooXXXXooooooooooooooooXXoooooooooooooooooooo  XX  ....",
"ooooooooooooXXXXooooooooooooooooXXoooooooooooooooooooo  XX  ...."
};
