/* XPM */
static char *result[] = {
/* columns rows colors chars-per-pixel */
"64 64 4 1 ",
"  c #609266",
". c #57B562",
"X c #BC9D74",
"o c #E1C5A1",
/* pixels */
"....  XX  ooooooooooooooooooooXXooooooooooooooooXXXXoooooooooooo",
"....  XX  ooooooooooooooooooooXXooooooooooooooooXXXXoooooooooooo",
"......  ooooooooooooooooooooooooXXooooooooooooXXooooooooXXoooooo",
"......  ooooooooooooooooooooooooXXooooooooooooXXooooooooXXoooooo",
"....  ooooooooooooooooooooooooXXooXXooooooooooooooooooooXXoooooo",
"....  ooooooooooooooooooooooooXXooXXooooooooooooooooooooXXoooooo",
"......  ooooooooXXXXooooooooooooooXXooooooooooooooooooooooXXoooo",
"......  ooooooooXXXXooooooooooooooXXooooooooooooooooooooooXXoooo",
"....  oo  ooooXXooooXXXXooooooooooooXXooooooooXXooooooooooXXoooo",
"....  oo  ooooXXooooXXXXooooooooooooXXooooooooXXooooooooooXXoooo",
"..  ooooooooooooooooooooooooooooooooXXooooooooooXXooooooooXXoooo",
"..  ooooooooooooooooooooooooooooooooXXooooooooooXXooooooooXXoooo",
"....  ooooooooooooooooooooooooooooooooooooooooooooooooooXXoooooo",
"....  ooooooooooooooooooooooooooooooooooooooooooooooooooXXoooooo",
"..  oo  XXooooooooooooooooooXXooooooooooooooooXXooooooooooXXoooo",
"..  oo  XXooooooooooooooooooXXooooooooooooooooXXooooooooooXXoooo",
"....  XXooXXooooooooooooooXXooooooooooooooooooXXoooooooooooooooo",
"....  XXooXXooooooooooooooXXooooooooooooooooooXXoooooooooooooooo",
"......  ooooooooooooooooooXXooooooooooooooooooXXoooooooooooooooo",
"......  ooooooooooooooooooXXooooooooooooooooooXXoooooooooooooooo",
"..    ooooXXooooooooooooXXooooooooooXXoooooooooooooooooooooooooo",
"..    ooooXXooooooooooooXXooooooooooXXoooooooooooooooooooooooooo",
"..  ooooXXooooooooooooooXXooooooooooooXXooooooooooooooooooooooXX",
"..  ooooXXooooooooooooooXXooooooooooooXXooooooooooooooooooooooXX",
"....    XXooooooooooooooXXooooooooooooXXooooooooooooooooooooXXoo",
"....    XXooooooooooooooXXooooooooooooXXooooooooooooooooooooXXoo",
"....  ooXXooooooooooooooooooooooooooooooXXoooooooooooooooooooooo",
"....  ooXXooooooooooooooooooooooooooooooXXoooooooooooooooooooooo",
"..  ooooooooooooooooooooooooooooooooooooXXoooooooooooooooooooooo",
"..  ooooooooooooooooooooooooooooooooooooXXoooooooooooooooooooooo",
"..    ooooooooooooooooooooooooooooooooooXXooooooooXXoooooooooooo",
"..    ooooooooooooooooooooooooooooooooooXXooooooooXXoooooooooooo",
"..  oo    ooooooooooooooooooooooooooooooooooooooooXXoooooooooooo",
"..  oo    ooooooooooooooooooooooooooooooooooooooooXXoooooooooooo",
"....  ooooooooooooXXooooooooooooooooooXXooooooooooXXoooooooooooo",
"....  ooooooooooooXXooooooooooooooooooXXooooooooooXXoooooooooooo",
"......  ooooooooooXXooooooooooooooooooooooooooooooooXXoooooooooo",
"......  ooooooooooXXooooooooooooooooooooooooooooooooXXoooooooooo",
"..    oooooooooooooooooooooooooooooooooooooooooooooooooooooooooo",
"..    oooooooooooooooooooooooooooooooooooooooooooooooooooooooooo",
"..  ooooooooooooXXooooooooooooooXXooooooooooooooooXXXXoooooooooo",
"..  ooooooooooooXXooooooooooooooXXooooooooooooooooXXXXoooooooooo",
"....  ooooooooooXXooooooooooooooooXXXXooooooooooXXooooooooooooXX",
"....  ooooooooooXXooooooooooooooooXXXXooooooooooXXooooooooooooXX",
"......  ooooooooooooooooooooooooooooooooooooooooXXooooooooooXXoo",
"......  ooooooooooooooooooooooooooooooooooooooooXXooooooooooXXoo",
"....  ooooooooooooXXooooooooooooooooooooooooooooooXXooooooooXXoo",
"....  ooooooooooooXXooooooooooooooooooooooooooooooXXooooooooXXoo",
"......  ooooooooXXooooooooooooooooooooooooooooooooXXooooooooooXX",
"......  ooooooooXXooooooooooooooooooooooooooooooooXXooooooooooXX",
"......  ooooooXXoooooooooooooooooooooooooooooooooooooooooooooooo",
"......  ooooooXXoooooooooooooooooooooooooooooooooooooooooooooooo",
"....  oooo  ooooXXoooooooooooooooooooooooooooooooooooooooooooooo",
"....  oooo  ooooXXoooooooooooooooooooooooooooooooooooooooooooooo",
"......    oooooooooooooooooooo  oooooooooooooooooooooo  oooooo  ",
"......    oooooooooooooooooooo  oooooooooooooooooooooo  oooooo  ",
"..........  oo  oo  oooooo  oo  oooooo  oooo  oo  oooooo  oo  oo",
"..........  oo  oo  oooooo  oo  oooooo  oooo  oo  oooooo  oo  oo",
"............  ..  ..  oo  ..  oo  oo    oo  ..  oo  oo  ..  ..  ",
"............  ..  ..  oo  ..  oo  oo    oo  ..  oo  oo  ..  ..  ",
"......................    ....      ....    ....  ..  ..........",
"......................    ....      ....    ....  ..  ..........",
"................................................................",
"................................................................"
};
