/* XPM */
static char *result[] = {
/* columns rows colors chars-per-pixel */
"64 64 4 1 ",
"  c #609266",
". c #57B562",
"X c #BC9D74",
"o c #E1C5A1",
/* pixels */
"......  XXXXooooooooooooooooooooXXooooooooooooooooooooXX  ......",
"......  XXXXooooooooooooooooooooXXooooooooooooooooooooXX  ......",
"....  XX  ooooooooooooooooooooooooXXooooooooooooooooXX  oo  ....",
"....  XX  ooooooooooooooooooooooooXXooooooooooooooooXX  oo  ....",
"..  ooooooooooooooooooooooooooooooXXoooooooooooooooooooooooo  ..",
"..  ooooooooooooooooooooooooooooooXXoooooooooooooooooooooooo  ..",
"..  oo  oooooooooooooooooooooooooooooooooooooooooooooooo  oo  ..",
"..  oo  oooooooooooooooooooooooooooooooooooooooooooooooo  oo  ..",
"....  oooooooooooooooooooooooooooooooooooooooooooooooooooo  ....",
"....  oooooooooooooooooooooooooooooooooooooooooooooooooooo  ....",
"..  ooooooooooooooooooooooooooooooooooooooooooXXoooooooooooo  ..",
"..  ooooooooooooooooooooooooooooooooooooooooooXXoooooooooooo  ..",
"....  ooooooooooooooooooooooooooooooooooooooooooXXoooooooo  ....",
"....  ooooooooooooooooooooooooooooooooooooooooooXXoooooooo  ....",
"......  ooooXXooooooooooooooooooooooooooooooooXXoooooooo  ......",
"......  ooooXXooooooooooooooooooooooooooooooooXXoooooooo  ......",
"....  ooooooXXooooooooooooooooooooooooooooooXXoooooooooooo  ....",
"....  ooooooXXooooooooooooooooooooooooooooooXXoooooooooooo  ....",
"......  ooooooXXoooooooooooooooooooooooooooooooooooooooo  ......",
"......  ooooooXXoooooooooooooooooooooooooooooooooooooooo  ......",
"....  ooooooooXXooooooooooXXXXooooooooooooooooXXoooooooooo  ....",
"....  ooooooooXXooooooooooXXXXooooooooooooooooXXoooooooooo  ....",
"..  ooooooXXXXooooooooooooooooXXooooooooooooooXXoooooooooooo  ..",
"..  ooooooXXXXooooooooooooooooXXooooooooooooooXXoooooooooooo  ..",
"..    oooooooooooooooooooooooooooooooooooooooooooooooooooo    ..",
"..    oooooooooooooooooooooooooooooooooooooooooooooooooooo    ..",
"......  ooXXooooooooooooooooooooooooooooooooXXoooooooooo  ......",
"......  ooXXooooooooooooooooooooooooooooooooXXoooooooooo  ......",
"....  ooooooXXooooooooooXXooooooooooooooooooXXoooooooooooo  ....",
"....  ooooooXXooooooooooXXooooooooooooooooooXXoooooooooooo  ....",
"..  oo    ooXXoooooooooooooooooooooooooooooooooooooooo    oo  ..",
"..  oo    ooXXoooooooooooooooooooooooooooooooooooooooo    oo  ..",
"..    ooooooXXooooooooXXoooooooooooooooooooooooooooooooooo    ..",
"..    ooooooXXooooooooXXoooooooooooooooooooooooooooooooooo    ..",
"..  ooooooooooooooooooXXoooooooooooooooooooooooooooooooooooo  ..",
"..  ooooooooooooooooooXXoooooooooooooooooooooooooooooooooooo  ..",
"....  ooooooooooooooooXXooooooooooooooooooooooooooooooXXoo  ....",
"....  ooooooooooooooooXXooooooooooooooooooooooooooooooXXoo  ....",
"....    ooooooooooooooooXXooooooooooooXXooooooooooooooXX    ....",
"....    ooooooooooooooooXXooooooooooooXXooooooooooooooXX    ....",
"..  ooooooooooooooooooooXXooooooooooooXXooooooooooooooXXoooo  ..",
"..  ooooooooooooooooooooXXooooooooooooXXooooooooooooooXXoooo  ..",
"..    ooooooooooooooooooooXXooooooooooXXooooooooooooXXoooo    ..",
"..    ooooooooooooooooooooXXooooooooooXXooooooooooooXXoooo    ..",
"......  ooooooooXXooooooooooooooooooXXoooooooooooooooooo  ......",
"......  ooooooooXXooooooooooooooooooXXoooooooooooooooooo  ......",
"....  ooooooooooXXooooooooooooooooooXXooooooooooooooXXooXX  ....",
"....  ooooooooooXXooooooooooooooooooXXooooooooooooooXXooXX  ....",
"..  XX  ooooooooXXooooooooooooooooXXooooooooooooooooooXX  oo  ..",
"..  XX  ooooooooXXooooooooooooooooXXooooooooooooooooooXX  oo  ..",
"....  XXoooooooooooooooooooooooooooooooooooooooooooooooooo  ....",
"....  XXoooooooooooooooooooooooooooooooooooooooooooooooooo  ....",
"..  XXooooooooXXooooooooooXXoooooooooooooooooooooooooooooooo  ..",
"..  XXooooooooXXooooooooooXXoooooooooooooooooooooooooooooooo  ..",
"....  oo  ooooooXXooooooooXXooooooooooooXXXXooooXXoooo  oo  ....",
"....  oo  ooooooXXooooooooXXooooooooooooXXXXooooXXoooo  oo  ....",
"......  ooooooooooooooooooooXXooooooooooooooXXXXoooooooo  ......",
"......  ooooooooooooooooooooXXooooooooooooooXXXXoooooooo  ......",
"....  XXooooooooooooooooooooXXooXXoooooooooooooooooooooooo  ....",
"....  XXooooooooooooooooooooXXooXXoooooooooooooooooooooooo  ....",
"......  ooooooooXXooooooooooooXXoooooooooooooooooooooooo  ......",
"......  ooooooooXXooooooooooooXXoooooooooooooooooooooooo  ......",
"....  ..  ooXXXXooooooooooooooooXXoooooooooooooooooooo  XX  ....",
"....  ..  ooXXXXooooooooooooooooXXoooooooooooooooooooo  XX  ...."
};
