/* XPM */
static char *result[] = {
/* columns rows colors chars-per-pixel */
"64 64 4 1 ",
"  c #609266",
". c #57B562",
"X c #BC9D74",
"o c #E1C5A1",
/* pixels */
"................................................................",
"................................................................",
"........................    ....      ....    ....  ..  ........",
"........................    ....      ....    ....  ..  ........",
"..............  ..  ..  oo  ..  oo  oo    oo  ..  oo  oo  ..  ..",
"..............  ..  ..  oo  ..  oo  oo    oo  ..  oo  oo  ..  ..",
"............  oo  oo  oooooo  oo  oooooo  oooo  oo  oooooo  oo  ",
"............  oo  oo  oooooo  oo  oooooo  oooo  oo  oooooo  oo  ",
"........    oooooooooooooooooooo  oooooooooooooooooooooo  oooooo",
"........    oooooooooooooooooooo  oooooooooooooooooooooo  oooooo",
"......  oooo  ooooooooooooooooooooooooooooooooXXoooooooooooooooo",
"......  oooo  ooooooooooooooooooooooooooooooooXXoooooooooooooooo",
"........  ooooooooooooooooooooooooooooooooooooooXXooooooooooooXX",
"........  ooooooooooooooooooooooooooooooooooooooXXooooooooooooXX",
"......  ooooXXooooooooooooooooooooooooooooooooXXoooooooooooooooo",
"......  ooooXXooooooooooooooooooooooooooooooooXXoooooooooooooooo",
"....  ooooooXXooooooooooooooooooooooooooooooXXoooooooooooooooooo",
"....  ooooooXXooooooooooooooooooooooooooooooXXoooooooooooooooooo",
"......  ooooooXXoooooooooooooooooooooooooooooooooooooooooooooooo",
"......  ooooooXXoooooooooooooooooooooooooooooooooooooooooooooooo",
"....  ooooooooXXooooooooooXXXXooooooooooooooooXXoooooooooooooooo",
"....  ooooooooXXooooooooooXXXXooooooooooooooooXXoooooooooooooooo",
"..  ooooooXXXXooooooooooooooooXXooooooooooooooXXooooooooooooooXX",
"..  ooooooXXXXooooooooooooooooXXooooooooooooooXXooooooooooooooXX",
"..    ooooooooooooooooooooooooooooooooooooooooooooooooooooooooXX",
"..    ooooooooooooooooooooooooooooooooooooooooooooooooooooooooXX",
"......  ooXXooooooooooooooooooooooooooooooooXXooooooooooooooXXoo",
"......  ooXXooooooooooooooooooooooooooooooooXXooooooooooooooXXoo",
"....  ooooooXXooooooooooXXooooooooooooooooooXXoooooooooooooooooo",
"....  ooooooXXooooooooooXXooooooooooooooooooXXoooooooooooooooooo",
"..  oo    ooXXoooooooooooooooooooooooooooooooooooooooooooooooooo",
"..  oo    ooXXoooooooooooooooooooooooooooooooooooooooooooooooooo",
"..    ooooooXXooooooooXXoooooooooooooooooooooooooooooooooooooooo",
"..    ooooooXXooooooooXXoooooooooooooooooooooooooooooooooooooooo",
"..  ooooooooooooooooooXXoooooooooooooooooooooooooooooooooooooooo",
"..  ooooooooooooooooooXXoooooooooooooooooooooooooooooooooooooooo",
"....  ooooooooooooooooXXooooooooooooooooooooooooooooooXXoooooooo",
"....  ooooooooooooooooXXooooooooooooooooooooooooooooooXXoooooooo",
"....    ooooooooooooooooXXooooooooooooXXooooooooooooooXXoooooooo",
"....    ooooooooooooooooXXooooooooooooXXooooooooooooooXXoooooooo",
"..  ooooooooooooooooooooXXooooooooooooXXooooooooooooooXXoooooooo",
"..  ooooooooooooooooooooXXooooooooooooXXooooooooooooooXXoooooooo",
"..    ooooooooooooooooooooXXooooooooooXXooooooooooooXXooooooooXX",
"..    ooooooooooooooooooooXXooooooooooXXooooooooooooXXooooooooXX",
"......  ooooooooXXooooooooooooooooooXXooooooooooooooooooooooXXoo",
"......  ooooooooXXooooooooooooooooooXXooooooooooooooooooooooXXoo",
"....  ooooooooooXXooooooooooooooooooXXooooooooooooooXXooXXooooXX",
"....  ooooooooooXXooooooooooooooooooXXooooooooooooooXXooXXooooXX",
"..  XX  ooooooooXXooooooooooooooooXXooooooooooooooooooXXoooooooo",
"..  XX  ooooooooXXooooooooooooooooXXooooooooooooooooooXXoooooooo",
"....  XXoooooooooooooooooooooooooooooooooooooooooooooooooooooooo",
"....  XXoooooooooooooooooooooooooooooooooooooooooooooooooooooooo",
"..  XXooooooooXXooooooooooXXoooooooooooooooooooooooooooooooooooo",
"..  XXooooooooXXooooooooooXXoooooooooooooooooooooooooooooooooooo",
"....  oo  ooooooXXooooooooXXooooooooooooXXXXooooXXoooooooooooooo",
"....  oo  ooooooXXooooooooXXooooooooooooXXXXooooXXoooooooooooooo",
"......  ooooooooooooooooooooXXooooooooooooooXXXXoooooooooooooooo",
"......  ooooooooooooooooooooXXooooooooooooooXXXXoooooooooooooooo",
"....  XXooooooooooooooooooooXXooXXooooooooooooooooooooooooXXoooo",
"....  XXooooooooooooooooooooXXooXXooooooooooooooooooooooooXXoooo",
"......  ooooooooXXooooooooooooXXooooooooooooooooooooooooooXXoooo",
"......  ooooooooXXooooooooooooXXooooooooooooooooooooooooooXXoooo",
"....  ..  ooXXXXooooooooooooooooXXooooooooooooooooooooooXXoooooo",
"....  ..  ooXXXXooooooooooooooooXXooooooooooooooooooooooXXoooooo"
};
