/* XPM */
static char *result[] = {
/* columns rows colors chars-per-pixel */
"64 64 4 1 ",
"  c #609266",
". c #57B562",
"X c #BC9D74",
"o c #E1C5A1",
/* pixels */
"................................................................",
"................................................................",
"....    ..  ..........    ....      ....    ....  ..  ..........",
"....    ..  ..........    ....      ....    ....  ..  ..........",
"..  oooo  oo  ..  ..  oo  ..  oo  XX    oo  ..  oo  oo  ..  ..  ",
"..  oooo  oo  ..  ..  oo  ..  oo  XX    oo  ..  oo  oo  ..  ..  ",
"..  oo  oooooo  oo  oooooo  oo  oooooo  oooo  oo  oooooo  oo  oo",
"..  oo  oooooo  oo  oooooo  oo  oooooo  oooo  oo  oooooo  oo  oo",
"....  oooooooooooooooooooooooo  oooooooooooooooooooooo  oooooo  ",
"....  oooooooooooooooooooooooo  oooooooooooooooooooooo  oooooo  ",
"..  ooooooooooooooooooooooooooooooooooooooooooXXoooooooooooooooo",
"..  ooooooooooooooooooooooooooooooooooooooooooXXoooooooooooooooo",
"....  ooooooooooooooooooooooooooooooooooooooooooXXooooooooooooXX",
"....  ooooooooooooooooooooooooooooooooooooooooooXXooooooooooooXX",
"......  ooooXXooooooooooooooooooooooooooooooooXXoooooooooooooooo",
"......  ooooXXooooooooooooooooooooooooooooooooXXoooooooooooooooo",
"....  ooooooXXooooooooooooooooooooooooooooooXXoooooooooooooooooo",
"....  ooooooXXooooooooooooooooooooooooooooooXXoooooooooooooooooo",
"......  ooooooXXoooooooooooooooooooooooooooooooooooooooooooooooo",
"......  ooooooXXoooooooooooooooooooooooooooooooooooooooooooooooo",
"....  ooooooooXXooooooooooXXXXooooooooooooooooXXoooooooooooooooo",
"....  ooooooooXXooooooooooXXXXooooooooooooooooXXoooooooooooooooo",
"..  ooooooXXXXooooooooooooooooXXooooooooooooooXXooooooooooooooXX",
"..  ooooooXXXXooooooooooooooooXXooooooooooooooXXooooooooooooooXX",
"..    ooooooooooooooooooooooooooooooooooooooooooooooooooooooooXX",
"..    ooooooooooooooooooooooooooooooooooooooooooooooooooooooooXX",
"......  ooXXooooooooooooooooooooooooooooooooXXooooooooooooooXXoo",
"......  ooXXooooooooooooooooooooooooooooooooXXooooooooooooooXXoo",
"....  ooooooXXooooooooooXXooooooooooooooooooXXoooooooooooooooooo",
"....  ooooooXXooooooooooXXooooooooooooooooooXXoooooooooooooooooo",
"..  oo    ooXXoooooooooooooooooooooooooooooooooooooooooooooooooo",
"..  oo    ooXXoooooooooooooooooooooooooooooooooooooooooooooooooo",
"..    ooooooXXooooooooXXoooooooooooooooooooooooooooooooooooooooo",
"..    ooooooXXooooooooXXoooooooooooooooooooooooooooooooooooooooo",
"..  ooooooooooooooooooXXoooooooooooooooooooooooooooooooooooooooo",
"..  ooooooooooooooooooXXoooooooooooooooooooooooooooooooooooooooo",
"....  ooooooooooooooooXXooooooooooooooooooooooooooooooXXoooooooo",
"....  ooooooooooooooooXXooooooooooooooooooooooooooooooXXoooooooo",
"....    ooooooooooooooooXXooooooooooooXXooooooooooooooXXoooooooo",
"....    ooooooooooooooooXXooooooooooooXXooooooooooooooXXoooooooo",
"..  ooooooooooooooooooooXXooooooooooooXXooooooooooooooXXoooooooo",
"..  ooooooooooooooooooooXXooooooooooooXXooooooooooooooXXoooooooo",
"..    ooooooooooooooooooooXXooooooooooXXooooooooooooXXooooooooXX",
"..    ooooooooooooooooooooXXooooooooooXXooooooooooooXXooooooooXX",
"......  ooooooooXXooooooooooooooooooXXooooooooooooooooooooooXXoo",
"......  ooooooooXXooooooooooooooooooXXooooooooooooooooooooooXXoo",
"....  ooooooooooXXooooooooooooooooooXXooooooooooooooXXooXXooooXX",
"....  ooooooooooXXooooooooooooooooooXXooooooooooooooXXooXXooooXX",
"..  XX  ooooooooXXooooooooooooooooXXooooooooooooooooooXXoooooooo",
"..  XX  ooooooooXXooooooooooooooooXXooooooooooooooooooXXoooooooo",
"....  XXoooooooooooooooooooooooooooooooooooooooooooooooooooooooo",
"....  XXoooooooooooooooooooooooooooooooooooooooooooooooooooooooo",
"..  XXooooooooXXooooooooooXXoooooooooooooooooooooooooooooooooooo",
"..  XXooooooooXXooooooooooXXoooooooooooooooooooooooooooooooooooo",
"....  oo  ooooooXXooooooooXXoooo  ooooooXXXXooooXXoooooooooo  oo",
"....  oo  ooooooXXooooooooXXoooo  ooooooXXXXooooXXoooooooooo  oo",
"......  oooooo  oo  oooo  ooXXoo  oo  oooooo  XX  oooooo  oooo  ",
"......  oooooo  oo  oooo  ooXXoo  oo  oooooo  XX  oooooo  oooo  ",
"....  ..  oo  oo  ..  oo    XX  XX  ..  oo  ..  ..  oo  ooXX  ..",
"....  ..  oo  oo  ..  oo    XX  XX  ..  oo  ..  ..  oo  ooXX  ..",
"..........  ..  ....    ....      ....    ..........  ..    ....",
"..........  ..  ....    ....      ....    ..........  ..    ....",
"................................................................",
"................................................................"
};
