/* XPM */
static char *result[] = {
/* columns rows colors chars-per-pixel */
"64 64 4 1 ",
"  c #609266",
". c #57B562",
"X c #BC9D74",
"o c #E1C5A1",
/* pixels */
"................................................................",
"................................................................",
"....    ..  ..........    ....      ....    ....  ..  ..........",
"....    ..  ..........    ....      ....    ....  ..  ..........",
"..  oooo  oo  ..  ..  oo  ..  oo  XX    oo  ..  oo  oo  ..  ..  ",
"..  oooo  oo  ..  ..  oo  ..  oo  XX    oo  ..  oo  oo  ..  ..  ",
"  oooo  oooooo  oo  oooooo  oo  oooooo  oooo  oo  oooooo  oo  oo",
"  oooo  oooooo  oo  oooooo  oo  oooooo  oooo  oo  oooooo  oo  oo",
"oo  oooooooooooooooooooooooooo  oooooooooooooooooooooo  oooooo  ",
"oo  oooooooooooooooooooooooooo  oooooooooooooooooooooo  oooooo  ",
"ooooooooooooooooooooooooooooooooooooooooooooooXXoooooooooooooooo",
"ooooooooooooooooooooooooooooooooooooooooooooooXXoooooooooooooooo",
"ooooooooooooooooooooooooooooooooooooooooooooooooXXooooooooooooXX",
"ooooooooooooooooooooooooooooooooooooooooooooooooXXooooooooooooXX",
"XXooooooooooXXooooooooooooooooooooooooooooooooXXoooooooooooooooo",
"XXooooooooooXXooooooooooooooooooooooooooooooooXXoooooooooooooooo",
"ooXXooooooooXXooooooooooooooooooooooooooooooXXoooooooooooooooooo",
"ooXXooooooooXXooooooooooooooooooooooooooooooXXoooooooooooooooooo",
"ooXXooooooooooXXoooooooooooooooooooooooooooooooooooooooooooooooo",
"ooXXooooooooooXXoooooooooooooooooooooooooooooooooooooooooooooooo",
"XXooooooooooooXXooooooooooXXXXooooooooooooooooXXoooooooooooooooo",
"XXooooooooooooXXooooooooooXXXXooooooooooooooooXXoooooooooooooooo",
"ooooooooooXXXXooooooooooooooooXXooooooooooooooXXooooooooooooooXX",
"ooooooooooXXXXooooooooooooooooXXooooooooooooooXXooooooooooooooXX",
"ooooooooooooooooooooooooooooooooooooooooooooooooooooooooooooooXX",
"ooooooooooooooooooooooooooooooooooooooooooooooooooooooooooooooXX",
"ooooooooooXXooooooooooooooooooooooooooooooooXXooooooooooooooXXoo",
"ooooooooooXXooooooooooooooooooooooooooooooooXXooooooooooooooXXoo",
"ooooooooooooXXooooooooooXXooooooooooooooooooXXoooooooooooooooooo",
"ooooooooooooXXooooooooooXXooooooooooooooooooXXoooooooooooooooooo",
"ooooooooooooXXoooooooooooooooooooooooooooooooooooooooooooooooooo",
"ooooooooooooXXoooooooooooooooooooooooooooooooooooooooooooooooooo",
"ooooooooooooXXooooooooXXoooooooooooooooooooooooooooooooooooooooo",
"ooooooooooooXXooooooooXXoooooooooooooooooooooooooooooooooooooooo",
"ooooooooooooooooooooooXXoooooooooooooooooooooooooooooooooooooooo",
"ooooooooooooooooooooooXXoooooooooooooooooooooooooooooooooooooooo",
"ooooooooooooooooooooooXXooooooooooooooooooooooooooooooXXoooooooo",
"ooooooooooooooooooooooXXooooooooooooooooooooooooooooooXXoooooooo",
"ooXXooooooooooooooooooooXXooooooooooooXXooooooooooooooXXoooooooo",
"ooXXooooooooooooooooooooXXooooooooooooXXooooooooooooooXXoooooooo",
"XXooooooooooooooooooooooXXooooooooooooXXooooooooooooooXXoooooooo",
"XXooooooooooooooooooooooXXooooooooooooXXooooooooooooooXXoooooooo",
"ooooooooooooooooooooooooooXXooooooooooXXooooooooooooXXooooooooXX",
"ooooooooooooooooooooooooooXXooooooooooXXooooooooooooXXooooooooXX",
"ooooooooooooooooXXooooooooooooooooooXXooooooooooooooooooooooXXoo",
"ooooooooooooooooXXooooooooooooooooooXXooooooooooooooooooooooXXoo",
"ooooooooooooooooXXooooooooooooooooooXXooooooooooooooXXooXXooooXX",
"ooooooooooooooooXXooooooooooooooooooXXooooooooooooooXXooXXooooXX",
"ooooXXooooooooooXXooooooooooooooooXXooooooooooooooooooXXoooooooo",
"ooooXXooooooooooXXooooooooooooooooXXooooooooooooooooooXXoooooooo",
"ooooooXXoooooooooooooooooooooooooooooooooooooooooooooooooooooooo",
"ooooooXXoooooooooooooooooooooooooooooooooooooooooooooooooooooooo",
"ooooXXooooooooXXooooooooooXXoooooooooooooooooooooooooooooooooooo",
"ooooXXooooooooXXooooooooooXXoooooooooooooooooooooooooooooooooooo",
"  ooXXoo  ooooooXXooooooooXXoooo  ooooooXXXXooooXXoooooooooo  oo",
"  ooXXoo  ooooooXXooooooooXXoooo  ooooooXXXXooooXXoooooooooo  oo",
"oo  XX  oooooo  oo  oooo  ooXXoo  oo  oooooo  XX  oooooo  oooo  ",
"oo  XX  oooooo  oo  oooo  ooXXoo  oo  oooooo  XX  oooooo  oooo  ",
"  ..  ..  oo  oo  ..  oo    XX  XX  ..  oo  ..  ..  oo  ooXX  ..",
"  ..  ..  oo  oo  ..  oo    XX  XX  ..  oo  ..  ..  oo  ooXX  ..",
"..........  ..  ....    ....      ....    ..........  ..    ....",
"..........  ..  ....    ....      ....    ..........  ..    ....",
"................................................................",
"................................................................"
};
