/* XPM */
static char *result[] = {
/* columns rows colors chars-per-pixel */
"64 64 4 1 ",
"  c #609266",
". c #57B562",
"X c #BC9D74",
"o c #E1C5A1",
/* pixels */
"ooooooooXXXXooooooooooooooooooooXXooooooooooooooooooooXXoooooooo",
"ooooooooXXXXooooooooooooooooooooXXooooooooooooooooooooXXoooooooo",
"ooooooXXooooooooooooooooooooooooooXXooooooooooooooooXXoooooooooo",
"ooooooXXooooooooooooooooooooooooooXXooooooooooooooooXXoooooooooo",
"ooooooooooooooooooooooooooooooooooXXoooooooooooooooooooooooooooo",
"ooooooooooooooooooooooooooooooooooXXoooooooooooooooooooooooooooo",
"oooooooooooooooooooooooooooooooooooooooooooooooooooooooooooooooo",
"oooooooooooooooooooooooooooooooooooooooooooooooooooooooooooooooo",
"oooooooooooooooooooooooooooooooooooooooooooooooooooooooooooooooo",
"oooooooooooooooooooooooooooooooooooooooooooooooooooooooooooooooo",
"ooooooooooooooooooooooooooooooooooooooooooooooXXoooooooooooooooo",
"ooooooooooooooooooooooooooooooooooooooooooooooXXoooooooooooooooo",
"ooooooooooooooooooooooooooooooooooooooooooooooooXXooooooooooooXX",
"ooooooooooooooooooooooooooooooooooooooooooooooooXXooooooooooooXX",
"XXooooooooooXXooooooooooooooooooooooooooooooooXXoooooooooooooooo",
"XXooooooooooXXooooooooooooooooooooooooooooooooXXoooooooooooooooo",
"ooXXooooooooXXooooooooooooooooooooooooooooooXXoooooooooooooooooo",
"ooXXooooooooXXooooooooooooooooooooooooooooooXXoooooooooooooooooo",
"ooXXooooooooooXXoooooooooooooooooooooooooooooooooooooooooooooooo",
"ooXXooooooooooXXoooooooooooooooooooooooooooooooooooooooooooooooo",
"XXooooooooooooXXooooooooooXXXXooooooooooooooooXXoooooooooooooooo",
"XXooooooooooooXXooooooooooXXXXooooooooooooooooXXoooooooooooooooo",
"ooooooooooXXXXooooooooooooooooXXooooooooooooooXXooooooooooooooXX",
"ooooooooooXXXXooooooooooooooooXXooooooooooooooXXooooooooooooooXX",
"ooooooooooooooooooooooooooooooooooooooooooooooooooooooooooooooXX",
"ooooooooooooooooooooooooooooooooooooooooooooooooooooooooooooooXX",
"ooooooooooXXooooooooooooooooooooooooooooooooXXooooooooooooooXXoo",
"ooooooooooXXooooooooooooooooooooooooooooooooXXooooooooooooooXXoo",
"ooooooooooooXXooooooooooXXooooooooooooooooooXXoooooooooooooooooo",
"ooooooooooooXXooooooooooXXooooooooooooooooooXXoooooooooooooooooo",
"ooooooooooooXXoooooooooooooooooooooooooooooooooooooooooooooooooo",
"ooooooooooooXXoooooooooooooooooooooooooooooooooooooooooooooooooo",
"ooooooooooooXXooooooooXXoooooooooooooooooooooooooooooooooooooooo",
"ooooooooooooXXooooooooXXoooooooooooooooooooooooooooooooooooooooo",
"ooooooooooooooooooooooXXoooooooooooooooooooooooooooooooooooooooo",
"ooooooooooooooooooooooXXoooooooooooooooooooooooooooooooooooooooo",
"ooooooooooooooooooooooXXooooooooooooooooooooooooooooooXXoooooooo",
"ooooooooooooooooooooooXXooooooooooooooooooooooooooooooXXoooooooo",
"ooXXooooooooooooooooooooXXooooooooooooXXooooooooooooooXXoooooooo",
"ooXXooooooooooooooooooooXXooooooooooooXXooooooooooooooXXoooooooo",
"XXooooooooooooooooooooooXXooooooooooooXXooooooooooooooXXoooooooo",
"XXooooooooooooooooooooooXXooooooooooooXXooooooooooooooXXoooooooo",
"ooooooooooooooooooooooooooXXooooooooooXXooooooooooooXXooooooooXX",
"ooooooooooooooooooooooooooXXooooooooooXXooooooooooooXXooooooooXX",
"ooooooooooooooooXXooooooooooooooooooXXooooooooooooooooooooooXXoo",
"ooooooooooooooooXXooooooooooooooooooXXooooooooooooooooooooooXXoo",
"ooooooooooooooooXXooooooooooooooooooXXooooooooooooooXXooXXooooXX",
"ooooooooooooooooXXooooooooooooooooooXXooooooooooooooXXooXXooooXX",
"ooooXXooooooooooXXooooooooooooooooXXooooooooooooooooooXXoooooooo",
"ooooXXooooooooooXXooooooooooooooooXXooooooooooooooooooXXoooooooo",
"ooooooXXoooooooooooooooooooooooooooooooooooooooooooooooooooooooo",
"ooooooXXoooooooooooooooooooooooooooooooooooooooooooooooooooooooo",
"ooooXXooooooooXXooooooooooXXoooooooooooooooooooooooooooooooooooo",
"ooooXXooooooooXXooooooooooXXoooooooooooooooooooooooooooooooooooo",
"  ooXXoo  ooooooXXooooooooXXoooo  ooooooXXXXooooXXoooooooooo  oo",
"  ooXXoo  ooooooXXooooooooXXoooo  ooooooXXXXooooXXoooooooooo  oo",
"oo  XX  oooooo  oo  oooo  ooXXoo  oo  oooooo  XX  oooooo  oooo  ",
"oo  XX  oooooo  oo  oooo  ooXXoo  oo  oooooo  XX  oooooo  oooo  ",
"  ..  ..  oo  oo  ..  oo    XX  XX  ..  oo  ..  ..  oo  ooXX  ..",
"  ..  ..  oo  oo  ..  oo    XX  XX  ..  oo  ..  ..  oo  ooXX  ..",
"..........  ..  ....    ....      ....    ..........  ..    ....",
"..........  ..  ....    ....      ....    ..........  ..    ....",
"................................................................",
"................................................................"
};
