/* XPM */
static char *result[] = {
/* columns rows colors chars-per-pixel */
"64 64 2 1 ",
"  c #BC9D74",
". c #E1C5A1",
/* pixels */
"........    ....................  ....................  ........",
"........    ....................  ....................  ........",
"......  ..........................  ................  ..........",
"......  ..........................  ................  ..........",
"..................................  ............................",
"..................................  ............................",
"................................................................",
"................................................................",
"................................................................",
"................................................................",
"..............................................  ................",
"..............................................  ................",
"................................................  ............  ",
"................................................  ............  ",
"  ..........  ................................  ................",
"  ..........  ................................  ................",
"..  ........  ..............................  ..................",
"..  ........  ..............................  ..................",
"..  ..........  ................................................",
"..  ..........  ................................................",
"  ............  ..........    ................  ................",
"  ............  ..........    ................  ................",
"..........    ................  ..............  ..............  ",
"..........    ................  ..............  ..............  ",
"..............................................................  ",
"..............................................................  ",
"..........  ................................  ..............  ..",
"..........  ................................  ..............  ..",
"............  ..........  ..................  ..................",
"............  ..........  ..................  ..................",
"............  ..................................................",
"............  ..................................................",
"............  ........  ........................................",
"............  ........  ........................................",
"......................  ........................................",
"......................  ........................................",
"......................  ..............................  ........",
"......................  ..............................  ........",
"..  ....................  ............  ..............  ........",
"..  ....................  ............  ..............  ........",
"  ......................  ............  ..............  ........",
"  ......................  ............  ..............  ........",
"..........................  ..........  ............  ........  ",
"..........................  ..........  ............  ........  ",
"................  ..................  ......................  ..",
"................  ..................  ......................  ..",
"................  ..................  ..............  ..  ....  ",
"................  ..................  ..............  ..  ....  ",
"....  ..........  ................  ..................  ........",
"....  ..........  ................  ..................  ........",
"......  ........................................................",
"......  ........................................................",
"....  ........  ..........  ....................................",
"....  ........  ..........  ....................................",
"....  ..........  ........  ............    ....  ..............",
"....  ..........  ........  ............    ....  ..............",
"....  ......................  ..............    ................",
"....  ......................  ..............    ................",
"......  ....................  ..  ........................  ....",
"......  ....................  ..  ........................  ....",
"......  ........  ............  ..........................  ....",
"......  ........  ............  ..........................  ....",
"............    ................  ......................  ......",
"............    ................  ......................  ......"
};
