/* XPM */
static char *result[] = {
/* columns rows colors chars-per-pixel */
"64 64 4 1 ",
"  c #609266",
". c #57B562",
"X c #BC9D74",
"o c #E1C5A1",
/* pixels */
"ooooooXXooooooooooooooooooooooXXooooooooooooooooXXXXoo  ..  ....",
"ooooooXXooooooooooooooooooooooXXooooooooooooooooXXXXoo  ..  ....",
"ooooXXooooooooooooooooooooooooooXXooooooooooooXXoooooooo  ......",
"ooooXXooooooooooooooooooooooooooXXooooooooooooXXoooooooo  ......",
"ooooXXooooooooooooooooooooooooXXooXXooooooooooooooooooooXX  ....",
"ooooXXooooooooooooooooooooooooXXooXXooooooooooooooooooooXX  ....",
"ooooooooooooooooXXXXooooooooooooooXXoooooooooooooooooooo  ......",
"ooooooooooooooooXXXXooooooooooooooXXoooooooooooooooooooo  ......",
"ooooooooooooooXXooooXXXXooooooooooooXXooooooooXXoooooo  oo  ....",
"ooooooooooooooXXooooXXXXooooooooooooXXooooooooXXoooooo  oo  ....",
"ooooooooooooooooooooooooooooooooooooXXooooooooooXXooooooooXX  ..",
"ooooooooooooooooooooooooooooooooooooXXooooooooooXXooooooooXX  ..",
"ooooooooooooooooooooooooooooooooooooooooooooooooooooooooXX  ....",
"ooooooooooooooooooooooooooooooooooooooooooooooooooooooooXX  ....",
"ooooooooXXooooooooooooooooooXXooooooooooooooooXXoooooooo  XX  ..",
"ooooooooXXooooooooooooooooooXXooooooooooooooooXXoooooooo  XX  ..",
"XXooooXXooXXooooooooooooooXXooooooooooooooooooXXoooooooooo  ....",
"XXooooXXooXXooooooooooooooXXooooooooooooooooooXXoooooooooo  ....",
"ooXXooooooooooooooooooooooXXooooooooooooooooooXXoooooooo  ......",
"ooXXooooooooooooooooooooooXXooooooooooooooooooXXoooooooo  ......",
"XXooooooooXXooooooooooooXXooooooooooXXoooooooooooooooooooo    ..",
"XXooooooooXXooooooooooooXXooooooooooXXoooooooooooooooooooo    ..",
"ooooooooXXooooooooooooooXXooooooooooooXXoooooooooooooooooooo  ..",
"ooooooooXXooooooooooooooXXooooooooooooXXoooooooooooooooooooo  ..",
"ooooooooXXooooooooooooooXXooooooooooooXXoooooooooooooooo    ....",
"ooooooooXXooooooooooooooXXooooooooooooXXoooooooooooooooo    ....",
"ooooooooXXooooooooooooooooooooooooooooooXXoooooooooooooooo  ....",
"ooooooooXXooooooooooooooooooooooooooooooXXoooooooooooooooo  ....",
"ooooooooooooooooooooooooooooooooooooooooXXoooooooooooooooooo  ..",
"ooooooooooooooooooooooooooooooooooooooooXXoooooooooooooooooo  ..",
"ooooooooooooooooooooooooooooooooooooooooXXooooooooXXoooooo    ..",
"ooooooooooooooooooooooooooooooooooooooooXXooooooooXXoooooo    ..",
"ooooooooooooooooooooooooooooooooooooooooooooooooooXXoo    oo  ..",
"ooooooooooooooooooooooooooooooooooooooooooooooooooXXoo    oo  ..",
"ooooooooooooooooooXXooooooooooooooooooXXooooooooooXXoooooo  ....",
"ooooooooooooooooooXXooooooooooooooooooXXooooooooooXXoooooo  ....",
"ooXXooooooooooooooXXooooooooooooooooooooooooooooooooXXoo  ......",
"ooXXooooooooooooooXXooooooooooooooooooooooooooooooooXXoo  ......",
"XXoooooooooooooooooooooooooooooooooooooooooooooooooooooooo    ..",
"XXoooooooooooooooooooooooooooooooooooooooooooooooooooooooo    ..",
"XXooooooooooooooXXooooooooooooooXXooooooooooooooooXXXXoooooo  ..",
"XXooooooooooooooXXooooooooooooooXXooooooooooooooooXXXXoooooo  ..",
"ooooooooooooooooXXooooooooooooooooXXXXooooooooooXXoooooooo  ....",
"ooooooooooooooooXXooooooooooooooooXXXXooooooooooXXoooooooo  ....",
"ooooooooooooooooooooooooooooooooooooooooooooooooXXoooooo  ......",
"ooooooooooooooooooooooooooooooooooooooooooooooooXXoooooo  ......",
"ooooooooooooooooooXXooooooooooooooooooooooooooooooXXoooooo  ....",
"ooooooooooooooooooXXooooooooooooooooooooooooooooooXXoooooo  ....",
"ooooooooooooooooXXooooooooooooooooooooooooooooooooXXoooo  ......",
"ooooooooooooooooXXooooooooooooooooooooooooooooooooXXoooo  ......",
"XXooooooooooooXXoooooooooooooooooooooooooooooooooooooo  ........",
"XXooooooooooooXXoooooooooooooooooooooooooooooooooooooo  ........",
"ooooooooooooooooXXoooooooooooooooooooooooooooooooo  oooo  ......",
"ooooooooooooooooXXoooooooooooooooooooooooooooooooo  oooo  ......",
"oooooo  oooooooooooooooooooooo  oooooooooooooooooooo    ........",
"oooooo  oooooooooooooooooooooo  oooooooooooooooooooo    ........",
"  oo  oooooo  oo  oooo  oooooo  oo  oooooo  oo  oo  ............",
"  oo  oooooo  oo  oooo  oooooo  oo  oooooo  oo  oo  ............",
"..  ..  oo  oo  ..  oo    oo  oo  ..  oo  ..  ..  ..............",
"..  ..  oo  oo  ..  oo    oo  oo  ..  oo  ..  ..  ..............",
"........  ..  ....    ....      ....    ........................",
"........  ..  ....    ....      ....    ........................",
"................................................................",
"................................................................"
};
