/* XPM */
static char *result[] = {
/* columns rows colors chars-per-pixel */
"64 64 4 1 ",
"  c #609266",
". c #57B562",
"X c #BC9D74",
"o c #E1C5A1",
/* pixels */
"................................................................",
"................................................................",
"....    ..  ..........    ....      ....    ....  ..  ..........",
"....    ..  ..........    ....      ....    ....  ..  ..........",
"..  oooo  oo  ..  ..  oo  ..  oo  XX    oo  ..  oo  oo  ..  ....",
"..  oooo  oo  ..  ..  oo  ..  oo  XX    oo  ..  oo  oo  ..  ....",
"  oooo  oooooo  oo  oooooo  oo  oooooo  oooo  oo  oooooo  oo  ..",
"  oooo  oooooo  oo  oooooo  oo  oooooo  oooo  oo  oooooo  oo  ..",
"oooooooooooooooooooooooooooooo  oooooooooooooooooooooooooo  ....",
"oooooooooooooooooooooooooooooo  oooooooooooooooooooooooooo  ....",
"ooooooooooooooooooooooooooooooooooooooooooooooXXoooooooooooo  ..",
"ooooooooooooooooooooooooooooooooooooooooooooooXXoooooooooooo  ..",
"ooooooooooooooooooooooooooooooooooooooooooooooooXXoooooooo  ....",
"ooooooooooooooooooooooooooooooooooooooooooooooooXXoooooooo  ....",
"XXooooooooooXXooooooooooooooooooooooooooooooooXXoooooooo  ......",
"XXooooooooooXXooooooooooooooooooooooooooooooooXXoooooooo  ......",
"ooXXooooooooXXooooooooooooooooooooooooooooooXXoooooooooooo  ....",
"ooXXooooooooXXooooooooooooooooooooooooooooooXXoooooooooooo  ....",
"ooXXooooooooooXXoooooooooooooooooooooooooooooooooooooooo  ......",
"ooXXooooooooooXXoooooooooooooooooooooooooooooooooooooooo  ......",
"XXooooooooooooXXooooooooooXXXXooooooooooooooooXXoooooooooo  ....",
"XXooooooooooooXXooooooooooXXXXooooooooooooooooXXoooooooooo  ....",
"ooooooooooXXXXooooooooooooooooXXooooooooooooooXXoooooooooooo  ..",
"ooooooooooXXXXooooooooooooooooXXooooooooooooooXXoooooooooooo  ..",
"oooooooooooooooooooooooooooooooooooooooooooooooooooooooooo    ..",
"oooooooooooooooooooooooooooooooooooooooooooooooooooooooooo    ..",
"ooooooooooXXooooooooooooooooooooooooooooooooXXoooooooooo  ......",
"ooooooooooXXooooooooooooooooooooooooooooooooXXoooooooooo  ......",
"ooooooooooooXXooooooooooXXooooooooooooooooooXXoooooooooooo  ....",
"ooooooooooooXXooooooooooXXooooooooooooooooooXXoooooooooooo  ....",
"ooooooooooooXXoooooooooooooooooooooooooooooooooooooooo    oo  ..",
"ooooooooooooXXoooooooooooooooooooooooooooooooooooooooo    oo  ..",
"ooooooooooooXXooooooooXXoooooooooooooooooooooooooooooooooo    ..",
"ooooooooooooXXooooooooXXoooooooooooooooooooooooooooooooooo    ..",
"ooooooooooooooooooooooXXoooooooooooooooooooooooooooooooooooo  ..",
"ooooooooooooooooooooooXXoooooooooooooooooooooooooooooooooooo  ..",
"ooooooooooooooooooooooXXooooooooooooooooooooooooooooooXXoo  ....",
"ooooooooooooooooooooooXXooooooooooooooooooooooooooooooXXoo  ....",
"ooXXooooooooooooooooooooXXooooooooooooXXooooooooooooooXX    ....",
"ooXXooooooooooooooooooooXXooooooooooooXXooooooooooooooXX    ....",
"XXooooooooooooooooooooooXXooooooooooooXXooooooooooooooXXoooo  ..",
"XXooooooooooooooooooooooXXooooooooooooXXooooooooooooooXXoooo  ..",
"ooooooooooooooooooooooooooXXooooooooooXXooooooooooooXXoooo    ..",
"ooooooooooooooooooooooooooXXooooooooooXXooooooooooooXXoooo    ..",
"ooooooooooooooooXXooooooooooooooooooXXoooooooooooooooooo  ......",
"ooooooooooooooooXXooooooooooooooooooXXoooooooooooooooooo  ......",
"ooooooooooooooooXXooooooooooooooooooXXooooooooooooooXXooXX  ....",
"ooooooooooooooooXXooooooooooooooooooXXooooooooooooooXXooXX  ....",
"ooooXXooooooooooXXooooooooooooooooXXooooooooooooooooooXX  oo  ..",
"ooooXXooooooooooXXooooooooooooooooXXooooooooooooooooooXX  oo  ..",
"ooooooXXoooooooooooooooooooooooooooooooooooooooooooooooooo  ....",
"ooooooXXoooooooooooooooooooooooooooooooooooooooooooooooooo  ....",
"ooooXXooooooooXXooooooooooXXoooooooooooooooooooooooooooooooo  ..",
"ooooXXooooooooXXooooooooooXXoooooooooooooooooooooooooooooooo  ..",
"  ooXXoo  ooooooXXooooooooXXooooooooooooXXXXooooXXoooo  oo  ....",
"  ooXXoo  ooooooXXooooooooXXooooooooooooXXXXooooXXoooo  oo  ....",
"oo  XX  oooooo  oo  ooooooooXXoooooooooooooo  XXoooooooo  ......",
"oo  XX  oooooo  oo  oooo  ooXXoooooo  oooooo  XXoooooooo  ......",
"  ..  ..  oo  oo  ..  oo    XX  XX  ..o oo  ..  ..  oo  oo  ....",
"  ..  ..  oo  oo  ..  oo    XX  XX  ..  oo  ..  ..  oo  oo  ....",
"..........  ..  ....    ....      ....    ..........  ..  ......",
"..........  ..  ....    ....      ....    ..........  ..  ......",
"................................................................",
"................................................................"
};
