/* XPM */
static char *result[] = {
/* columns rows colors chars-per-pixel */
"64 64 3 1 ",
"  c #A39374",
". c #D6CAB2",
"X c #FCEDD1",
/* pixels */
"                                                                ",
"                                                                ",
"XXXXXXXXXXXXXXXXXXXXXXXXXX      XXXXXXXXXX..XX..XXXXXX....XXXXXX",
"XXXXXXXXXXXXXXXXXXXXXXXXXX      XXXXXXXXXX..XX..XXXXXX....XXXXXX",
"......XXXX................XX  ....................XX............",
"......XXXX................XX  ....................XX............",
"..XXXX  ..........XXXXXX..XX  ....................    ..........",
"..XXXX  ..........XXXXXX..XX  ....................    ..........",
"........    ..............XX  ..........XXXX....................",
"........    ..............XX  ..........XXXX....................",
"..........  ....XXXX........  ............  ..........        ..",
"..........  ....XXXX........  ............  ..........        ..",
"......XX......    ........XX  ......XX............XXXX..........",
"......XX......    ........XX  ......XX............XXXX..........",
"......XX........    ........  ........................XXXXXX....",
"......XX........    ........  ........................XXXXXX....",
"............................  ..................................",
"............................  ..................................",
"..........................      ................................",
"..........................      ................................",
"                                                                ",
"                                                                ",
"XXXXXXXXXX..XX..XXXXXX..XXXXXXXXXXXX..XXXXXXXXXXXX      XXXX....",
"XXXXXXXXXX..XX..XXXXXX..XXXXXXXXXXXX..XXXXXXXXXXXX      XXXX....",
"......................XX..........................XX  ..........",
"......................XX..........................XX  ..........",
"    ..............................................XX  ..........",
"    ..............................................XX  ..........",
"....  ..............................................  ........  ",
"....  ..............................................  ........  ",
"......  ......  ......XXXXXX............XX........XX  ..........",
"......  ......  ......XXXXXX............XX........XX  ..........",
"....XX..............................................  ........XX",
"....XX..............................................  ........XX",
"XXXX............................    ..............XX  ........XX",
"XXXX............................    ..............XX  ........XX",
"..............XXXXXX..............................XX  ..........",
"..............XXXXXX..............................XX  ..........",
"............XX..........................  ........XX  ..........",
"............XX..........................  ........XX  ..........",
"..........................................  ......      ........",
"..........................................  ......      ........",
"                                                                ",
"                                                                ",
"XX..XXXXXXXXXX      XX..XXXXXXXXXXXX....XXXXXX..XX..XXXXXXXXXX..",
"XX..XXXXXXXXXX      XX..XXXXXXXXXXXX....XXXXXX..XX..XXXXXXXXXX..",
"..............XX  ............XX..........XX....................",
"..............XX  ............XX..........XX....................",
"  ..  ........XX  ..........XXXX................................",
"  ..  ........XX  ..........XXXX................................",
"................  ..........XX..............................    ",
"................  ..........XX..............................    ",
"XX............XX  ....................  ......    ..........XXXX",
"XX............XX  ....................  ......    ..........XXXX",
"................  ....................XX......................XX",
"................  ....................XX......................XX",
"..XXXX..........  ................XX........XXXXXX..............",
"..XXXX..........  ................XX........XXXXXX..............",
"..............XX  ..............................................",
"..............XX  ..............................................",
"..............      ........................................  ..",
"..............      ........................................  ..",
"                                                                ",
"                                                                "
};
