/* XPM */
static char *result[] = {
/* columns rows colors chars-per-pixel */
"64 64 14 1 ",
"  c #3B0F0F",
". c #393939",
"X c #4E392D",
"o c #6F2626",
"O c #1F314B",
"+ c #2B2F43",
"@ c #534D4A",
"# c #5B5D6D",
"$ c #506686",
"% c #9B9B9B",
"& c #D1AC95",
"* c #E5DB88",
"= c #D8D8D8",
"- c None",
/* pixels */
"----------------------------------------------------------------",
"----------------------------------------------------------------",
"----------------------------------------------------------------",
"----------------------------------------------------------------",
"----------------------------************------------------------",
"----------------------------************------------------------",
"------------------------********************--------------------",
"------------------------********************--------------------",
"----------------------************************------------------",
"----------------------************************------------------",
"--------------------------****************----------------------",
"--------------------------****************----------------------",
"----------------------------XXXXXXXXXXXX------------------------",
"----------------------------XXXXXXXXXXXX------------------------",
"------------------------oo--ooooXXXXXXXX------------------..----",
"------------------------oo--ooooXXXXXXXX------------------..----",
"------------------------%%oo--XXooooXX--%%%%------------##..----",
"------------------------%%oo--XXooooXX--%%%%------------##..----",
"----------------------%%====%%oo$$$$$$%%====%%----------##..----",
"----------------------%%====%%oo$$$$$$%%====%%----------##..----",
"--------------------%%====ooOOooOOOOXX%%======%%------####..----",
"--------------------%%====ooOOooOOOOXX%%======%%------####..----",
"--------------------%%==oo&&ooOOOO@@XXOO%%====%%------##..------",
"--------------------%%==oo&&ooOOOO@@XXOO%%====%%------##..------",
"----------------------%%&&&&OOOOOO@@XXOO&&%%%%------####..------",
"----------------------%%&&&&OOOOOO@@XXOO&&%%%%------####..------",
"--------------------&&&&&&--OOOO@@XXOOOO&&&&&&&&----##..--------",
"--------------------&&&&&&--OOOO@@XXOOOO&&&&&&&&----##..--------",
"------------------&&XX&&&&--OOOO@@XXOOOO--&&&&&&--####..--------",
"------------------&&XX&&&&--OOOO@@XXOOOO--&&&&&&--####..--------",
"------------------&&&&XX----OO@@XXOOXXOO--&&&&&&      ----------",
"------------------&&&&XX----OO@@XXOOXXOO--&&&&&&      ----------",
"----------------------------OOXXOOOOOOXX----&&XXXX&&    --------",
"----------------------------OOXXOOOOOOXX----&&XXXX&&    --------",
"----------------------------XX%%OOOOOOOO------XX&&&&------------",
"----------------------------XX%%OOOOOOOO--------&&&&------------",
"----------------------------OOXXXXXXXXXX--------&&&&------------",
"----------------------------OOXXXXXXXXXX--------&&&&------------",
"--------------------------OOOOOOOOOOOOOOOO----------------------",
"--------------------------OOOOOOOOOOOOOOOO----------------------",
"------------------------OOOOOOOO$$OOOOOOOO----------------------",
"------------------------OOOOOOOO$$OOOOOOOO----------------------",
"------------------------$$OO$$$$++$$$$OOOO$$--------------------",
"------------------------$$OO$$$$++$$$$OOOO$$--------------------",
"--------------------------$$++++++++++$$$$----------------------",
"--------------------------$$++++++++++$$$$----------------------",
"--------------------------%%++++%%++++++++----------------------",
"--------------------------%%++++%%++++++++----------------------",
"--------------------------==%%%%==++%%%%++----------------------",
"--------------------------==%%%%==++%%%%++----------------------",
"----------------------------====--%%====%%----------------------",
"----------------------------====--%%====%%----------------------",
"----------------------------------========----------------------",
"----------------------------------========----------------------",
"------------------------------------======----------------------",
"------------------------------------======----------------------",
"------------------------------------==%%==----------------------",
"------------------------------------==%%==----------------------",
"------------------------------------%%%%%%----------------------",
"------------------------------------%%%%%%----------------------",
"----------------------------------------------------------------",
"----------------------------------------------------------------",
"----------------------------------------------------------------",
"----------------------------------------------------------------"
};
