/* XPM */
static char *result[] = {
/* columns rows colors chars-per-pixel */
"64 64 13 1 ",
"  c #3B0F0F",
". c #393939",
"X c #4E392D",
"o c #6F2626",
"O c #1F314B",
"+ c #2B2F43",
"@ c #5B5D6D",
"# c #506686",
"$ c #9B9B9B",
"% c #D1AC95",
"& c #E5DB88",
"* c #D8D8D8",
"= c None",
/* pixels */
"================================================================",
"================================================================",
"================================================================",
"================================================================",
"================================&&&&&&&&========================",
"================================&&&&&&&&========================",
"====..======================&&&&&&&&&&&&&&&&&&==================",
"====..====================&&&&&&&&&&&&&&&&&&&&==================",
"====@@..================&&&&&&&&&&&&&&&&&&&&&&&&================",
"====@@..================&&&&&&&&&&&&&&&&&&&&&&&&================",
"====@@..======================XXXXXXXX%%XX======================",
"====@@..======================XXXXXXXX%%XX======================",
"====@@@@..============oooo====XXXX%%XX%%========================",
"====@@@@..============oooo====XXXX%%XX%%========================",
"======@@..==========oo====oo==XX%%%%%%%%oo======================",
"======@@..==========oo====oo==XX%%%%%%%%oo======================",
"======@@..==================oooooooooooooo======================",
"======@@..==================oooooooooooooo======================",
"======@@@@..==============oo====oooooooo========================",
"======@@@@..==============oo====oooooooo========================",
"========@@..==========oooo====$$$$$$XX%%$$======================",
"========@@..==========oooo====$$$$$$XX%%$$======================",
"========@@..========oo======$$******$$##**$$====================",
"========@@..========oo======$$******$$##**$$====================",
"========@@@@..============%%%%$$****$$XXOO%%====================",
"========@@@@..============%%%%$$****$$XXOO%%====================",
"==========@@..==========%%%%%%%%$$$$##XXOO%%%%==================",
"==========@@..==========%%%%%%%%$$$$##XXOO%%%%==================",
"==========@@..==========%%%%%%OOOOOO##XXOO%%%%==================",
"==========@@..==========%%%%%%OOOOOO##XXOO%%%%==================",
"==========@@@@..======%%%%%%OOOOOOOOXXOO%%%%%%%%================",
"==========@@@@..======%%%%%%OOOOOOOOXXOO%%%%%%%%================",
"============@@..====XX%%%%OOXXOOOOXXOOOO==%%XXXX================",
"============@@..====XX%%%%OOXXOOOOXXOOOO==%%XXXX================",
"============@@    XXXXXX==OOOOXXXX##OO====XX%%%%XX==============",
"============@@    XXXXXX==OOOOXXXX##OO====XX%%%%XX==============",
"============    %%%%XXXX==XXOOOO##$$##====%%%%%%%%==============",
"============    %%%%XXXX==XXOOOO##$$##====%%%%%%%%==============",
"==========    ==%%%%%%==OOOOXXXXXXXXXX======%%%%================",
"==========    ==%%%%%%==OOOOXXXXXXXXXX======%%%%================",
"======================OOOOOOOO##++##OOOO========================",
"======================OOOOOOOO##++##OOOO========================",
"================##OOOOOOOOOOOO##++++####OOOO====================",
"================##OOOOOOOOOOOO##++++####OOOO====================",
"==================##OOOOOOOO##++++++++++####OO==================",
"==================##OOOOOOOO##++++++++++####OO==================",
"==================++##OOOO####====++++++++++##==================",
"==================++##OOOO####====++++++++++##==================",
"================++++++######========++$$$$++====================",
"================++++++######========++$$$$++====================",
"==============**$$++++++++==========******$$====================",
"==============**$$++++++++==========******$$====================",
"============******$$$$==============********====================",
"============******$$$$==============********====================",
"========$$**********==============$$******======================",
"========$$**********==============$$******======================",
"========$$****====================$$****========================",
"========$$****====================$$****========================",
"========$$**======================$$****========================",
"========$$**======================$$****========================",
"========$$**========================$$**========================",
"========$$**========================$$**========================",
"================================================================",
"================================================================"
};
