/* XPM */
static char *result[] = {
/* columns rows colors chars-per-pixel */
"64 64 13 1 ",
"  c #3B0F0F",
". c #393939",
"X c #4E392D",
"o c #6F2626",
"O c #1F314B",
"+ c #2B2F43",
"@ c #5B5D6D",
"# c #506686",
"$ c #9B9B9B",
"% c #D1AC95",
"& c #E5DB88",
"* c #D8D8D8",
"= c None",
/* pixels */
"================================================================",
"================================================================",
"================================================================",
"================================================================",
"========================&&&&&&&&================================",
"========================&&&&&&&&================================",
"==================&&&&&&&&&&&&&&&&&&&&====================..====",
"==================&&&&&&&&&&&&&&&&&&&&====================..====",
"================&&&&&&&&&&&&&&&&&&&&&&&&================..@@====",
"================&&&&&&&&&&&&&&&&&&&&&&&&================..@@====",
"======================XX%%XXXXXXXX======================..@@====",
"======================XX%%XXXXXXXX======================..@@====",
"========================%%XX%%XXXX====oooo============..@@@@====",
"========================%%XX%%XXXX====oooo============..@@@@====",
"======================oo%%%%%%%%XX==oo====oo==========..@@======",
"======================oo%%%%%%%%XX==oo====oo==========..@@======",
"======================oooooooooooooo==================..@@======",
"======================oooooooooooooo==================..@@======",
"========================oooooooo====oo==============..@@@@======",
"========================oooooooo====oo==============..@@@@======",
"======================$$%%XX$$$$$$====oooo==========..@@========",
"======================$$%%XX$$$$$$====oooo==========..@@========",
"====================$$**##$$******$$======oo========..@@========",
"====================$$**##$$******$$======oo========..@@========",
"====================%%OOXX$$****$$%%%%============..@@@@========",
"====================%%OOXX$$****$$%%%%============..@@@@========",
"==================%%%%OOXX##$$$$%%%%%%%%==========..@@==========",
"==================%%%%OOXX##$$$$%%%%%%%%==========..@@==========",
"==================%%%%OOXX##OOOOOO%%%%%%==========..@@==========",
"==================%%%%OOXX##OOOOOO%%%%%%==========..@@==========",
"================%%%%%%%%OOXXOOOOOOOO%%%%%%======..@@@@==========",
"================%%%%%%%%OOXXOOOOOOOO%%%%%%======..@@@@==========",
"================XXXX%%==OOOOXXOOOOXXOO%%%%XX====..@@============",
"================XXXX%%==OOOOXXOOOOXXOO%%%%XX====..@@============",
"==============XX%%%%XX====OO##XXXXOOOO==XXXXXX    @@============",
"==============XX%%%%XX====OO##XXXXOOOO==XXXXXX    @@============",
"==============%%%%%%%%====##$$##OOOOXX==XXXX%%%%    ============",
"==============%%%%%%%%====##$$##OOOOXX==XXXX%%%%    ============",
"================%%%%======XXXXXXXXXXOOOO==%%%%%%==    ==========",
"================%%%%======XXXXXXXXXXOOOO==%%%%%%==    ==========",
"========================OOOO##++##OOOOOOOO======================",
"========================OOOO##++##OOOOOOOO======================",
"====================OOOO####++++##OOOOOOOOOOOO##================",
"====================OOOO####++++##OOOOOOOOOOOO##================",
"==================OO####++++++++++##OOOOOOOO##==================",
"==================OO####++++++++++##OOOOOOOO##==================",
"==================##++++++++++====####OOOO##++==================",
"==================##++++++++++====####OOOO##++==================",
"====================++$$$$++========######++++++================",
"====================++$$$$++========######++++++================",
"====================$$******==========++++++++$$**==============",
"====================$$******==========++++++++$$**==============",
"====================********==============$$$$******============",
"====================********==============$$$$******============",
"======================******$$==============**********$$========",
"======================******$$==============**********$$========",
"========================****$$====================****$$========",
"========================****$$====================****$$========",
"========================****$$======================**$$========",
"========================****$$======================**$$========",
"========================**$$========================**$$========",
"========================**$$========================**$$========",
"================================================================",
"================================================================"
};
