/* XPM */
static char *result[] = {
/* columns rows colors chars-per-pixel */
"64 64 13 1 ",
"  c #3B0F0F",
". c #393939",
"X c #4E392D",
"o c #6F2626",
"O c #1F314B",
"+ c #2B2F43",
"@ c #5B5D6D",
"# c #506686",
"$ c #9B9B9B",
"% c #D1AC95",
"& c #E5DB88",
"* c #D8D8D8",
"= c None",
/* pixels */
"================================================================",
"================================================================",
"================================================================",
"================================================================",
"==================================&&&&&&&&======================",
"==================================&&&&&&&&======================",
"======..====================&&&&&&&&&&&&&&&&&&&&================",
"======..====================&&&&&&&&&&&&&&&&&&&&================",
"======@@..================&&&&&&&&&&&&&&&&&&&&&&&&==============",
"======@@..================&&&&&&&&&&&&&&&&&&&&&&&&==============",
"======@@..======================XXXX%%XXXXXX====================",
"======@@..======================XXXX%%XXXXXX====================",
"======@@@@..============oooo====XX%%%%%%%%XX====================",
"======@@@@..============oooo====XX%%%%%%%%XX====================",
"========@@..==========oo====oo==%%oooooooo%%====================",
"========@@..==========oo====oo==%%oooooooo%%====================",
"========@@..==================oooooooooooooo====================",
"========@@..==================oooooooooooooo====================",
"========@@@@..======oo====oo$$$$==oooooooo==$$$$================",
"========@@@@..======oo====oo$$$$==oooooooo==$$$$================",
"==========@@..========oooo$$****XX##%%%%##$$****$$==============",
"==========@@..========oooo$$****XX##%%%%##$$****$$==============",
"==========@@..==========$$****$$XX##%%##OO$$******$$============",
"==========@@..==========$$****$$XX##%%##OO$$******$$============",
"==========@@@@..========$$****$$XXOO####OOOO$$****$$============",
"==========@@@@..========$$****$$XXOO####OOOO$$****$$============",
"============@@..==========$$$$%%OOXX##OOOOOO%%$$$$==============",
"============@@..==========$$$$%%OOXX##OOOOOO%%$$$$==============",
"============@@..========%%%%%%%%OOXX##OOOOOO%%%%%%%%============",
"============@@..========%%%%%%%%OOXX##OOOOOO%%%%%%%%============",
"============@@@@..======%%%%%%==OOXXXXOOOOOO==%%%%%%============",
"============@@@@..======%%%%%%==OOXXXXOOOOOO==%%%%%%============",
"==============@@..====%%%%%%%%==XX##OOXXOOOO==%%%%%%%%==========",
"==============@@..====%%%%%%%%==XX##OOXXOOOO==%%%%%%%%==========",
"==============@@    XX%%%%%%====OO##OOOOXX##====%%%%XX==========",
"==============@@    XX%%%%%%====OO##OOOOXX##====%%%%XX==========",
"==============    %%XXXXXX======##OO####$$XX====%%XXXX==========",
"==============    %%XXXXXX======##OO####$$XX====%%XXXX==========",
"============    %%%%%%XX========XXXXXXXXXXOO====XXXX%%==========",
"============    %%%%%%XX========XXXXXXXXXXOO====XXXX%%==========",
"==================%%%%========OOOOOO##OOOOOOOO==%%%%%%==========",
"==================%%%%========OOOOOO##OOOOOOOO==%%%%%%==========",
"============================OOOOOOOO##OOOOOOOO==%%%%============",
"============================OOOOOOOO##OOOOOOOO==%%%%============",
"============================OOOOOO##++##OOOOOOOO================",
"============================OOOOOO##++##OOOOOOOO================",
"==========================##OOOOOO##++++++OOOO##================",
"==========================##OOOOOO##++++++OOOO##================",
"==========================++######++====++####++================",
"==========================++######++====++####++================",
"==========================++++++++======++++++++================",
"==========================++++++++======++++++++================",
"==========================$$$$++++========++$$$$================",
"==========================$$$$++++========++$$$$================",
"==========================****$$==========$$****================",
"==========================****$$==========$$****================",
"==========================******==========******================",
"==========================******==========******================",
"==========================******==========******================",
"==========================******==========******================",
"========================******==============******==============",
"========================******==============******==============",
"========================$$$$$$==============$$$$$$==============",
"========================$$$$$$==============$$$$$$=============="
};
