/* XPM */
static char *result[] = {
/* columns rows colors chars-per-pixel */
"64 64 13 1 ",
"  c #3B0F0F",
". c #393939",
"X c #4E392D",
"o c #6F2626",
"O c #1F314B",
"+ c #2B2F43",
"@ c #5B5D6D",
"# c #506686",
"$ c #9B9B9B",
"% c #D1AC95",
"& c #E5DB88",
"* c #D8D8D8",
"= c None",
/* pixels */
"================================================================",
"================================================================",
"================================================================",
"================================================================",
"============================&&&&&&&&&&&&========================",
"============================&&&&&&&&&&&&========================",
"========================&&&&&&&&&&&&&&&&&&&&====================",
"========================&&&&&&&&&&&&&&&&&&&&====================",
"======================&&&&&&&&&&&&&&&&&&&&&&&&==================",
"======================&&&&&&&&&&&&&&&&&&&&======================",
"==========================&&&&&&&&&&&&&&&&======================",
"==========================&&&&&&&&&&&&&&&&======================",
"============================%%oooooooo%%========================",
"============================%%oooooooo%%========================",
"============================oooooooooooo========================",
"============================oooooooooooo========================",
"========================$$$$==oooooooo==$$$$====================",
"========================$$$$==oooooooo==$$$$====================",
"======================$$****XX##%%%%##$$****$$==================",
"======================$$****XX##%%%%##$$****$$==================",
"======================$$**$$XX##%%##OO$$******$$================",
"======================$$**$$XX##%%##OO$$******$$================",
"====================$$**$$%%XXOO####OOOO$$****$$================",
"====================$$**$$%%XXOO####OOOO$$****$$================",
"======================$$%%%%OOXX##OOOOOO%%$$$$==================",
"======================$$%%%%OOXX##OOOOOO%%$$$$==================",
"====================%%%%%%==OOXX##OOOOOO%%%%%%%%================",
"====================%%%%%%==OOXX##OOOOOO%%%%%%%%================",
"====================XX%%%%==OOXXXXOOOOOO==%%%%%%================",
"====================XX%%%%==OOXXXXOOOOOO==%%%%%%================",
"================    %%XX====XX##OOXXOOOO==%%%%%%%%==============",
"================    %%XX====XX##OOXXOOOO==%%%%%%%%==============",
"==================      ====OO##OOOOXX##====%%%%XX==============",
"==================      ====OO##OOOOXX##====%%%%XX==============",
"================..@@@@======##OO####$$XX====%%XXXX==============",
"================..@@@@======##OO####$$XX====%%XXXX==============",
"================..@@========XXXXXXXXXXOO====XXXX%%==============",
"================..@@========XXXXXXXXXXOO====XXXX%%==============",
"==============..@@@@======OOOOOO##OOOOOOOO==%%%%%%==============",
"==============..@@@@======OOOOOO##OOOOOOOO==%%%%%%==============",
"==============..@@======OOOOOO##++##OOOOOO==%%%%================",
"==============..@@======OOOOOO##++##OOOOOO==%%%%================",
"============..@@@@======##OO##++++++##OOOOOO====================",
"============..@@@@======##OO##++++++##OOOOOO====================",
"============..@@==========##++++++++++####OO====================",
"============..@@==========##++++++++++####OO====================",
"============..@@==========$$++++$$++++++++##====================",
"============..@@==========$$++++$$++++++++##====================",
"============..============**$$$$**++$$$$++======================",
"============..============**$$$$**++$$$$++======================",
"============================****==$$****$$======================",
"============================****==$$****$$======================",
"==================================********======================",
"==================================********======================",
"====================================******======================",
"====================================******======================",
"====================================**$$**======================",
"====================================**$$**======================",
"====================================$$$$$$======================",
"====================================$$$$$$======================",
"================================================================",
"================================================================",
"================================================================",
"================================================================"
};
