/* XPM */
static char *result[] = {
/* columns rows colors chars-per-pixel */
"64 64 4 1 ",
"  c #57B562",
". c #A39374",
"X c #D6CAB2",
"o c #FCEDD1",
/* pixels */
"                  ..............................................",
"                  ..............................................",
"            ........oooooo......ooooooooooXXooXXooooooXXXXoooooo",
"            ........oooooo......ooooooooooXXooXXooooooXXXXoooooo",
"        ......XXXXXXXXXXXXoo..XXXXXXXXXXXXXXXXXXXXooXXXXXXXXXXXX",
"        ......XXXXXXXXXXXXoo..XXXXXXXXXXXXXXXXXXXXooXXXXXXXXXXXX",
"      ....XXXXXXXXooooooXXoo..XXXXXXXXXXXXXXXXXXXX....XXXXXXXXXX",
"      ....XXXXXXXXooooooXXoo..XXXXXXXXXXXXXXXXXXXX....XXXXXXXXXX",
"    ........XXXXXXXXXXXXXXoo..XXXXXXXXXXooooXXXXXXXXXXXXXXXXXXXX",
"    ........XXXXXXXXXXXXXXoo..XXXXXXXXXXooooXXXXXXXXXXXXXXXXXXXX",
"    ..XXXX..XXXXooooXXXXXXXX..XXXXXXXXXXXX..XXXXXXXXXX........XX",
"    ..XXXX..XXXXooooXXXXXXXX..XXXXXXXXXXXX..XXXXXXXXXX........XX",
"  ....ooXXXXXX....XXXXXXXXoo..XXXXXXooXXXXXXXXXXXXooooXXXXXXXXXX",
"  ....ooXXXXXX....XXXXXXXXoo..XXXXXXooXXXXXXXXXXXXooooXXXXXXXXXX",
"  ..XXooXXXXXXXX....XXXXXXXX..XXXXXXXXXXXXXXXXXXXXXXXXooooooXXXX",
"  ..XXooXXXXXXXX....XXXXXXXX..XXXXXXXXXXXXXXXXXXXXXXXXooooooXXXX",
"  ..XXXXXXXXXXXXXXXXXXXXXXXX..XXXXXXXXXXXXXXXXXXXXXXXXXXXXXXXXXX",
"  ..XXXXXXXXXXXXXXXXXXXXXXXX..XXXXXXXXXXXXXXXXXXXXXXXXXXXXXXXXXX",
"....XXXXXXXXXXXXXXXXXXXXXX......XXXXXXXXXXXXXXXXXXXXXXXXXXXXXXXX",
"....XXXXXXXXXXXXXXXXXXXXXX......XXXXXXXXXXXXXXXXXXXXXXXXXXXXXXXX",
"................................................................",
"................................................................",
"..ooooooooXXooXXooooooXXooooooooooooXXoooooooooooo......ooooXXXX",
"..ooooooooXXooXXooooooXXooooooooooooXXoooooooooooo......ooooXXXX",
"..XXXXXXXXXXXXXXXXXXXXooXXXXXXXXXXXXXXXXXXXXXXXXXXoo..XXXXXXXXXX",
"..XXXXXXXXXXXXXXXXXXXXooXXXXXXXXXXXXXXXXXXXXXXXXXXoo..XXXXXXXXXX",
"....XXXXXXXXXXXXXXXXXXXXXXXXXXXXXXXXXXXXXXXXXXXXXXoo..XXXXXXXXXX",
"....XXXXXXXXXXXXXXXXXXXXXXXXXXXXXXXXXXXXXXXXXXXXXXoo..XXXXXXXXXX",
"..XX..XXXXXXXXXXXXXXXXXXXXXXXXXXXXXXXXXXXXXXXXXXXXXX..XXXXXXXX..",
"..XX..XXXXXXXXXXXXXXXXXXXXXXXXXXXXXXXXXXXXXXXXXXXXXX..XXXXXXXX..",
"..XXXX..XXXXXX..XXXXXXooooooXXXXXXXXXXXXooXXXXXXXXoo..XXXXXXXXXX",
"..XXXX..XXXXXX..XXXXXXooooooXXXXXXXXXXXXooXXXXXXXXoo..XXXXXXXXXX",
"..XXooXXXXXXXXXXXXXXXXXXXXXXXXXXXXXXXXXXXXXXXXXXXXXX..XXXXXXXXoo",
"..XXooXXXXXXXXXXXXXXXXXXXXXXXXXXXXXXXXXXXXXXXXXXXXXX..XXXXXXXXoo",
"..ooXXXXXXXXXXXXXXXXXXXXXXXXXXXX....XXXXXXXXXXXXXXoo..XXXXXXXXoo",
"..ooXXXXXXXXXXXXXXXXXXXXXXXXXXXX....XXXXXXXXXXXXXXoo..XXXXXXXXoo",
"..XXXXXXXXXXXXooooooXXXXXXXXXXXXXXXXXXXXXXXXXXXXXXoo..XXXXXXXXXX",
"..XXXXXXXXXXXXooooooXXXXXXXXXXXXXXXXXXXXXXXXXXXXXXoo..XXXXXXXXXX",
"..XXXXXXXXXXooXXXXXXXXXXXXXXXXXXXXXXXXXX..XXXXXXXXoo..XXXXXXXXXX",
"..XXXXXXXXXXooXXXXXXXXXXXXXXXXXXXXXXXXXX..XXXXXXXXoo..XXXXXXXXXX",
"..XXXXXXXXXXXXXXXXXXXXXXXXXXXXXXXXXXXXXXXX..XXXXXX......XXXXXXXX",
"..XXXXXXXXXXXXXXXXXXXXXXXXXXXXXXXXXXXXXXXX..XXXXXX......XXXXXXXX",
"................................................................",
"................................................................",
"..XXoooooooooo......ooXXooooooooooooXXXXooooooXXooXXooooooooooXX",
"..XXoooooooooo......ooXXooooooooooooXXXXooooooXXooXXooooooooooXX",
"..XXXXXXXXXXXXoo..XXXXXXXXXXXXooXXXXXXXXXXooXXXXXXXXXXXXXXXXXXXX",
"..XXXXXXXXXXXXoo..XXXXXXXXXXXXooXXXXXXXXXXooXXXXXXXXXXXXXXXXXXXX",
"..XX..XXXXXXXXoo..XXXXXXXXXXooooXXXXXXXXXXXXXXXXXXXXXXXXXXXXXXXX",
"..XX..XXXXXXXXoo..XXXXXXXXXXooooXXXXXXXXXXXXXXXXXXXXXXXXXXXXXXXX",
"..XXXXXXXXXXXXXX..XXXXXXXXXXooXXXXXXXXXXXXXXXXXXXXXXXXXXXXXX....",
"..XXXXXXXXXXXXXX..XXXXXXXXXXooXXXXXXXXXXXXXXXXXXXXXXXXXXXXXX....",
"..XXXXXXXXXXXXoo..XXXXXXXXXXXXXXXXXXXX..XXXXXX....XXXXXXXXXXoooo",
"..XXXXXXXXXXXXoo..XXXXXXXXXXXXXXXXXXXX..XXXXXX....XXXXXXXXXXoooo",
"..XXXXXXXXXXXXXX..XXXXXXXXXXXXXXXXXXXXooXXXXXXXXXXXXXXXXXXXXXXoo",
"..XXXXXXXXXXXXXX..XXXXXXXXXXXXXXXXXXXXooXXXXXXXXXXXXXXXXXXXXXXoo",
"..ooooXXXXXXXXXX..XXXXXXXXXXXXXXXXooXXXXXXXXooooooXXXXXXXXXXXXXX",
"..ooooXXXXXXXXXX..XXXXXXXXXXXXXXXXooXXXXXXXXooooooXXXXXXXXXXXXXX",
"..XXXXXXXXXXXXoo..XXXXXXXXXXXXXXXXXXXXXXXXXXXXXXXXXXXXXXXXXXXXXX",
"..XXXXXXXXXXXXoo..XXXXXXXXXXXXXXXXXXXXXXXXXXXXXXXXXXXXXXXXXXXXXX",
"..XXXXXXXXXXXX......XXXXXXXXXXXXXXXXXXXXXXXXXXXXXXXXXXXXXXXX..XX",
"..XXXXXXXXXXXX......XXXXXXXXXXXXXXXXXXXXXXXXXXXXXXXXXXXXXXXX..XX",
"................................................................",
"................................................................"
};
