/* XPM */
static char *result[] = {
/* columns rows colors chars-per-pixel */
"64 64 4 1 ",
"  c #57B562",
". c #A39374",
"X c #D6CAB2",
"o c #FCEDD1",
/* pixels */
"................................................................",
"................................................................",
"..oooooooooooooooooooooooo......ooooooooooXXooXXooooooXXXXoooo..",
"..oooooooooooooooooooooooo......ooooooooooXXooXXooooooXXXXoooo..",
"..XXXXooooXXXXXXXXXXXXXXXXoo..XXXXXXXXXXXXXXXXXXXXooXXXXXXXXXX..",
"..XXXXooooXXXXXXXXXXXXXXXXoo..XXXXXXXXXXXXXXXXXXXXooXXXXXXXXXX..",
"..oooo..XXXXXXXXXXooooooXXoo..XXXXXXXXXXXXXXXXXXXX....XXXXXXXX..",
"..oooo..XXXXXXXXXXooooooXXoo..XXXXXXXXXXXXXXXXXXXX....XXXXXXXX..",
"..XXXXXX....XXXXXXXXXXXXXXoo..XXXXXXXXXXooooXXXXXXXXXXXXXXXXXX..",
"..XXXXXX....XXXXXXXXXXXXXXoo..XXXXXXXXXXooooXXXXXXXXXXXXXXXXXX..",
"..XXXXXXXX..XXXXooooXXXXXXXX..XXXXXXXXXXXX..XXXXXXXXXX..........",
"..XXXXXXXX..XXXXooooXXXXXXXX..XXXXXXXXXXXX..XXXXXXXXXX..........",
"..XXXXooXXXXXX....XXXXXXXXoo..XXXXXXooXXXXXXXXXXXXooooXXXXXXXX..",
"..XXXXooXXXXXX....XXXXXXXXoo..XXXXXXooXXXXXXXXXXXXooooXXXXXXXX..",
"..XXXXooXXXXXXXX....XXXXXXXX..XXXXXXXXXXXXXXXXXXXXXXXXooooooXX..",
"..XXXXooXXXXXXXX....XXXXXXXX..XXXXXXXXXXXXXXXXXXXXXXXXooooooXX..",
"..XXXXXXXXXXXXXXXXXXXXXXXXXX..XXXXXXXXXXXXXXXXXXXXXXXXXXXXXXXX..",
"..XXXXXXXXXXXXXXXXXXXXXXXXXX..XXXXXXXXXXXXXXXXXXXXXXXXXXXXXXXX..",
"..XXXXXXXXXXXXXXXXXXXXXXXX......XXXXXXXXXXXXXXXXXXXXXXXXXXXXXX..",
"..XXXXXXXXXXXXXXXXXXXXXXXX......XXXXXXXXXXXXXXXXXXXXXXXXXXXXXX..",
"................................................................",
"................................................................",
"..ooooooooXXooXXooooooXXooooooooooooXXoooooooooooo......ooooXX..",
"..ooooooooXXooXXooooooXXooooooooooooXXoooooooooooo......ooooXX..",
"..XXXXXXXXXXXXXXXXXXXXooXXXXXXXXXXXXXXXXXXXXXXXXXXoo..XXXXXXXX..",
"..XXXXXXXXXXXXXXXXXXXXooXXXXXXXXXXXXXXXXXXXXXXXXXXoo..XXXXXXXX..",
"....XXXXXXXXXXXXXXXXXXXXXXXXXXXXXXXXXXXXXXXXXXXXXXoo..XXXXXXXX..",
"....XXXXXXXXXXXXXXXXXXXXXXXXXXXXXXXXXXXXXXXXXXXXXXoo..XXXXXXXX..",
"..XX..XXXXXXXXXXXXXXXXXXXXXXXXXXXXXXXXXXXXXXXXXXXXXX..XXXXXXXX..",
"..XX..XXXXXXXXXXXXXXXXXXXXXXXXXXXXXXXXXXXXXXXXXXXXXX..XXXXXXXX..",
"..XXXX..XXXXXX..XXXXXXooooooXXXXXXXXXXXXooXXXXXXXXoo..XXXXXXXX..",
"..XXXX..XXXXXX..XXXXXXooooooXXXXXXXXXXXXooXXXXXXXXoo..XXXXXXXX..",
"..XXooXXXXXXXXXXXXXXXXXXXXXXXXXXXXXXXXXXXXXXXXXXXXXX..XXXXXXXX..",
"..XXooXXXXXXXXXXXXXXXXXXXXXXXXXXXXXXXXXXXXXXXXXXXXXX..XXXXXXXX..",
"..ooXXXXXXXXXXXXXXXXXXXXXXXXXXXX....XXXXXXXXXXXXXXoo..XXXXXXXX..",
"..ooXXXXXXXXXXXXXXXXXXXXXXXXXXXX....XXXXXXXXXXXXXXoo..XXXXXXXX..",
"..XXXXXXXXXXXXooooooXXXXXXXXXXXXXXXXXXXXXXXXXXXXXXoo..XXXXXXXX..",
"..XXXXXXXXXXXXooooooXXXXXXXXXXXXXXXXXXXXXXXXXXXXXXoo..XXXXXXXX..",
"..XXXXXXXXXXooXXXXXXXXXXXXXXXXXXXXXXXXXX..XXXXXXXXoo..XXXXXXXX..",
"..XXXXXXXXXXooXXXXXXXXXXXXXXXXXXXXXXXXXX..XXXXXXXXoo..XXXXXXXX..",
"..XXXXXXXXXXXXXXXXXXXXXXXXXXXXXXXXXXXXXXXX..XXXXXX......XXXXXX..",
"..XXXXXXXXXXXXXXXXXXXXXXXXXXXXXXXXXXXXXXXX..XXXXXX......XXXXXX..",
"................................................................",
"................................................................",
"....oooooooooo......ooXXooooooooooooXXXXooooooXXooXXoooooooo....",
"....oooooooooo......ooXXooooooooooooXXXXooooooXXooXXoooooooo....",
"  ..XXXXXXXXXXoo..XXXXXXXXXXXXooXXXXXXXXXXooXXXXXXXXXXXXXXXX..  ",
"  ..XXXXXXXXXXoo..XXXXXXXXXXXXooXXXXXXXXXXooXXXXXXXXXXXXXXXX..  ",
"  ....XXXXXXXXoo..XXXXXXXXXXooooXXXXXXXXXXXXXXXXXXXXXXXXXXXX..  ",
"  ....XXXXXXXXoo..XXXXXXXXXXooooXXXXXXXXXXXXXXXXXXXXXXXXXXXX..  ",
"  ....XXXXXXXXXX..XXXXXXXXXXooXXXXXXXXXXXXXXXXXXXXXXXXXXXX....  ",
"  ....XXXXXXXXXX..XXXXXXXXXXooXXXXXXXXXXXXXXXXXXXXXXXXXXXX....  ",
"    ..XXXXXXXXoo..XXXXXXXXXXXXXXXXXXXX..XXXXXX....XXXXXXXX..    ",
"    ..XXXXXXXXoo..XXXXXXXXXXXXXXXXXXXX..XXXXXX....XXXXXXXX..    ",
"    ....XXXXXXXX..XXXXXXXXXXXXXXXXXXXXooXXXXXXXXXXXXXXXX....    ",
"    ....XXXXXXXX..XXXXXXXXXXXXXXXXXXXXooXXXXXXXXXXXXXXXX....    ",
"      ....XXXXXX..XXXXXXXXXXXXXXXXooXXXXXXXXooooooXXXX....      ",
"      ....XXXXXX..XXXXXXXXXXXXXXXXooXXXXXXXXooooooXXXX....      ",
"        ......oo..XXXXXXXXXXXXXXXXXXXXXXXXXXXXXXXX......        ",
"        ......oo..XXXXXXXXXXXXXXXXXXXXXXXXXXXXXXXX......        ",
"            ........XXXXXXXXXXXXXXXXXXXXXXXX........            ",
"            ........XXXXXXXXXXXXXXXXXXXXXXXX........            ",
"                  ............................                  ",
"                  ............................                  "
};
