/* XPM */
static char *result[] = {
/* columns rows colors chars-per-pixel */
"64 64 4 1 ",
"  c #57B562",
". c #A39374",
"X c #D6CAB2",
"o c #FCEDD1",
/* pixels */
"..............................................                  ",
"oooooooooooooooooooooooooo......ooooooooooXX........            ",
"oooooooooooooooooooooooooo......ooooooooooXX........            ",
"XXXXXooooXXXXXXXXXXXXXXXXXoo..XXXXXXXXXXXXXXXXXXXX......        ",
"XXXXXooooXXXXXXXXXXXXXXXXXoo..XXXXXXXXXXXXXXXXXXXX......        ",
"Xoooo..XXXXXXXXXXXooooooXXoo..XXXXXXXXXXXXXXXXXXXX........      ",
"Xoooo..XXXXXXXXXXXooooooXXoo..XXXXXXXXXXXXXXXXXXXX........      ",
"XXXXXXX....XXXXXXXXXXXXXXXoo..XXXXXXXXXXooooXXXXXXXXXXXX....    ",
"XXXXXXX....XXXXXXXXXXXXXXXoo..XXXXXXXXXXooooXXXXXXXXXXXX....    ",
"XXXXXXXXX..XXXXXooooXXXXXXXX..XXXXXXXXXXXX..XXXXXXXXXX......    ",
"XXXXXXXXX..XXXXXooooXXXXXXXX..XXXXXXXXXXXX..XXXXXXXXXX......    ",
"XXXXXooXXXXXXX....XXXXXXXXoo..XXXXXXooXXXXXXXXXXXXooooXXXX....  ",
"XXXXXooXXXXXXX....XXXXXXXXoo..XXXXXXooXXXXXXXXXXXXooooXXXX....  ",
"XXXXXooXXXXXXX....XXXXXXXXoo..XXXXXXooXXXXXXXXXXXXooooXXXX....  ",
"XXXXXooXXXXXXXXX....XXXXXXXX..XXXXXXXXXXXXXXXXXXXXXXXXoooooo..  ",
"XXXXXooXXXXXXXXX....XXXXXXXX..XXXXXXXXXXXXXXXXXXXXXXXXoooooo..  ",
"XXXXXXXXXXXXXXXXXXXXXXXXXXXX..XXXXXXXXXXXXXXXXXXXXXXXXXXXXXX..  ",
"XXXXXXXXXXXXXXXXXXXXXXXXXXXX..XXXXXXXXXXXXXXXXXXXXXXXXXXXXXX..  ",
"XXXXXXXXXXXXXXXXXXXXXXXXXX......XXXXXXXXXXXXXXXXXXXXXXXXXXXX....",
"XXXXXXXXXXXXXXXXXXXXXXXXXX......XXXXXXXXXXXXXXXXXXXXXXXXXXXX....",
"................................................................",
"................................................................",
"oooooooooXXoooXXooooooXXooooooooooooXXoooooooooooo......ooooXX..",
"oooooooooXXoooXXooooooXXooooooooooooXXoooooooooooo......ooooXX..",
"XXXXXXXXXXXXXXXXXXXXXXooXXXXXXXXXXXXXXXXXXXXXXXXXXoo..XXXXXXXX..",
"XXXXXXXXXXXXXXXXXXXXXXooXXXXXXXXXXXXXXXXXXXXXXXXXXoo..XXXXXXXX..",
"...XXXXXXXXXXXXXXXXXXXXXXXXXXXXXXXXXXXXXXXXXXXXXXXoo..XXXXXXXX..",
"...XXXXXXXXXXXXXXXXXXXXXXXXXXXXXXXXXXXXXXXXXXXXXXXoo..XXXXXXXX..",
"XXX..XXXXXXXXXXXXXXXXXXXXXXXXXXXXXXXXXXXXXXXXXXXXXXX..XXXXXXXX..",
"XXX..XXXXXXXXXXXXXXXXXXXXXXXXXXXXXXXXXXXXXXXXXXXXXXX..XXXXXXXX..",
"XXXXX..XXXXXXX..XXXXXXooooooXXXXXXXXXXXXooXXXXXXXXoo..XXXXXXXX..",
"XXXXX..XXXXXXX..XXXXXXooooooXXXXXXXXXXXXooXXXXXXXXoo..XXXXXXXX..",
"XXXooXXXXXXXXXXXXXXXXXXXXXXXXXXXXXXXXXXXXXXXXXXXXXXX..XXXXXXXX..",
"XXXooXXXXXXXXXXXXXXXXXXXXXXXXXXXXXXXXXXXXXXXXXXXXXXX..XXXXXXXX..",
"oooXXXXXXXXXXXXXXXXXXXXXXXXXXXXX....XXXXXXXXXXXXXXoo..XXXXXXXX..",
"oooXXXXXXXXXXXXXXXXXXXXXXXXXXXXX....XXXXXXXXXXXXXXoo..XXXXXXXX..",
"XXXXXXXXXXXXXXooooooXXXXXXXXXXXXXXXXXXXXXXXXXXXXXXoo..XXXXXXXX..",
"XXXXXXXXXXXXXXooooooXXXXXXXXXXXXXXXXXXXXXXXXXXXXXXoo..XXXXXXXX..",
"XXXXXXXXXXXoooXXXXXXXXXXXXXXXXXXXXXXXXXX..XXXXXXXXoo..XXXXXXXX..",
"XXXXXXXXXXXoooXXXXXXXXXXXXXXXXXXXXXXXXXX..XXXXXXXXoo..XXXXXXXX..",
"XXXXXXXXXXXXXXXXXXXXXXXXXXXXXXXXXXXXXXXXXX..XXXXXX......XXXXXX..",
"XXXXXXXXXXXXXXXXXXXXXXXXXXXXXXXXXXXXXXXXXX..XXXXXX......XXXXXX..",
"................................................................",
"................................................................",
"oXXooooooooooo......ooXXooooooooooooXXXXooooooXXooXXoooooooo....",
"oXXooooooooooo......ooXXooooooooooooXXXXooooooXXooXXoooooooo....",
"XXXXXXXXXXXXXXoo..XXXXXXXXXXXXooXXXXXXXXXXooXXXXXXXXXXXXXXXX..  ",
"XXXXXXXXXXXXXXoo..XXXXXXXXXXXXooXXXXXXXXXXooXXXXXXXXXXXXXXXX..  ",
".XX..XXXXXXXXXoo..XXXXXXXXXXooooXXXXXXXXXXXXXXXXXXXXXXXXXXXX..  ",
".XX..XXXXXXXXXoo..XXXXXXXXXXooooXXXXXXXXXXXXXXXXXXXXXXXXXXXX..  ",
"XXXXXXXXXXXXXXXX..XXXXXXXXXXooXXXXXXXXXXXXXXXXXXXXXXXXXXXX....  ",
"XXXXXXXXXXXXXXXX..XXXXXXXXXXooXXXXXXXXXXXXXXXXXXXXXXXXXXXX....  ",
"oXXXXXXXXXXXXXoo..XXXXXXXXXXXXXXXXXXXX..XXXXXX....XXXXXXXX..    ",
"oXXXXXXXXXXXXXoo..XXXXXXXXXXXXXXXXXXXX..XXXXXX....XXXXXXXX..    ",
"XXXXXXXXXXXXXXXX..XXXXXXXXXXXXXXXXXXXXooXXXXXXXXXXXXXXXX....    ",
"XXXXXXXXXXXXXXXX..XXXXXXXXXXXXXXXXXXXXooXXXXXXXXXXXXXXXX....    ",
"XooooXXXXXXXXXXX..XXXXXXXXXXXXXXXXooXXXXXXXXooooooXXXX....      ",
"XooooXXXXXXXXXXX..XXXXXXXXXXXXXXXXooXXXXXXXXooooooXXXX....      ",
"XXXXXXXXXXXXXXoo..XXXXXXXXXXXXXXXXXXXXXXXXXXXXXXXX......        ",
"XXXXXXXXXXXXXXoo..XXXXXXXXXXXXXXXXXXXXXXXXXXXXXXXX......        ",
"XXXXXXXXXXXXXX......XXXXXXXXXXXXXXXXXXXXXXXX........            ",
"XXXXXXXXXXXXXX......XXXXXXXXXXXXXXXXXXXXXXXX........            ",
"..............................................                  ",
"..............................................                  "
};
