/* XPM */
static char *result[] = {
/* columns rows colors chars-per-pixel */
"64 64 4 1 ",
"  c #57B562",
". c #A39374",
"X c #D6CAB2",
"o c #FCEDD1",
/* pixels */
"..............................................                  ",
"oooooooooooooooooooooooooo......ooooooooooXX........            ",
"oooooooooooooooooooooooooo......ooooooooooXX........            ",
"XXXXXooooXXXXXXXXXXXXXXXXXoo..XXXXXXXXXXXXXXXXXXXX......        ",
"XXXXXooooXXXXXXXXXXXXXXXXXoo..XXXXXXXXXXXXXXXXXXXX......        ",
"Xoooo..XXXXXXXXXXXooooooXXoo..XXXXXXXXXXXXXXXXXXXX........      ",
"Xoooo..XXXXXXXXXXXooooooXXoo..XXXXXXXXXXXXXXXXXXXX........      ",
"XXXXXXX....XXXXXXXXXXXXXXXoo..XXXXXXXXXXooooXXXXXXXXXXXX....    ",
"XXXXXXX....XXXXXXXXXXXXXXXoo..XXXXXXXXXXooooXXXXXXXXXXXX....    ",
"XXXXXXXXX..XXXXXooooXXXXXXXX..XXXXXXXXXXXX..XXXXXXXXXX......    ",
"XXXXXXXXX..XXXXXooooXXXXXXXX..XXXXXXXXXXXX..XXXXXXXXXX......    ",
"XXXXXooXXXXXXX....XXXXXXXXoo..XXXXXXooXXXXXXXXXXXXooooXXXX....  ",
"XXXXXooXXXXXXX....XXXXXXXXoo..XXXXXXooXXXXXXXXXXXXooooXXXX....  ",
"XXXXXooXXXXXXX....XXXXXXXXoo..XXXXXXooXXXXXXXXXXXXooooXXXX....  ",
"XXXXXooXXXXXXXXX....XXXXXXXX..XXXXXXXXXXXXXXXXXXXXXXXXoooooo..  ",
"XXXXXooXXXXXXXXX....XXXXXXXX..XXXXXXXXXXXXXXXXXXXXXXXXoooooo..  ",
"XXXXXXXXXXXXXXXXXXXXXXXXXXXX..XXXXXXXXXXXXXXXXXXXXXXXXXXXXXX..  ",
"XXXXXXXXXXXXXXXXXXXXXXXXXXXX..XXXXXXXXXXXXXXXXXXXXXXXXXXXXXX..  ",
"XXXXXXXXXXXXXXXXXXXXXXXXXX......XXXXXXXXXXXXXXXXXXXXXXXXXXXX....",
"XXXXXXXXXXXXXXXXXXXXXXXXXX......XXXXXXXXXXXXXXXXXXXXXXXXXXXX....",
"................................................................",
"................................................................",
"oooooooooXXoooXXooooooXXooooooooooooXXoooooooooooo......ooooXX..",
"oooooooooXXoooXXooooooXXooooooooooooXXoooooooooooo......ooooXX..",
"XXXXXXXXXXXXXXXXXXXXXXooXXXXXXXXXXXXXXXXXXXXXXXXXXoo..XXXXXXXX..",
"XXXXXXXXXXXXXXXXXXXXXXooXXXXXXXXXXXXXXXXXXXXXXXXXXoo..XXXXXXXX..",
"...XXXXXXXXXXXXXXXXXXXXXXXXXXXXXXXXXXXXXXXXXXXXXXXoo..XXXXXXXX..",
"...XXXXXXXXXXXXXXXXXXXXXXXXXXXXXXXXXXXXXXXXXXXXXXXoo..XXXXXXXX..",
"XXX..XXXXXXXXXXXXXXXXXXXXXXXXXXXXXXXXXXXXXXXXXXXXXXX..XXXXXXXX..",
"XXX..XXXXXXXXXXXXXXXXXXXXXXXXXXXXXXXXXXXXXXXXXXXXXXX..XXXXXXXX..",
"XXXXX..XXXXXXX..XXXXXXooooooXXXXXXXXXXXXooXXXXXXXXoo..XXXXXXXX..",
"XXXXX..XXXXXXX..XXXXXXooooooXXXXXXXXXXXXooXXXXXXXXoo..XXXXXXXX..",
"XXXooXXXXXXXXXXXXXXXXXXXXXXXXXXXXXXXXXXXXXXXXXXXXXXX..XXXXXXXX..",
"XXXooXXXXXXXXXXXXXXXXXXXXXXXXXXXXXXXXXXXXXXXXXXXXXXX..XXXXXXXX..",
"oooXXXXXXXXXXXXXXXXXXXXXXXXXXXXX....XXXXXXXXXXXXXXoo..XXXXXXXX..",
"oooXXXXXXXXXXXXXXXXXXXXXXXXXXXXX....XXXXXXXXXXXXXXoo..XXXXXXXX..",
"XXXXXXXXXXXXXXooooooXXXXXXXXXXXXXXXXXXXXXXXXXXXXXXoo..XXXXXXXX..",
"XXXXXXXXXXXXXXooooooXXXXXXXXXXXXXXXXXXXXXXXXXXXXXXoo..XXXXXXXX..",
"XXXXXXXXXXXoooXXXXXXXXXXXXXXXXXXXXXXXXXX..XXXXXXXXoo..XXXXXXXX..",
"XXXXXXXXXXXoooXXXXXXXXXXXXXXXXXXXXXXXXXX..XXXXXXXXoo..XXXXXXXX..",
"XXXXXXXXXXXXXXXXXXXXXXXXXXXXXXXXXXXXXXXXXX..XXXXXX......XXXXXX..",
"XXXXXXXXXXXXXXXXXXXXXXXXXXXXXXXXXXXXXXXXXX..XXXXXX......XXXXXX..",
"................................................................",
"................................................................",
"oXXooooooooooo......ooXXooooooooooooXXXXooooooXXooXXoooooooooo..",
"oXXooooooooooo......ooXXooooooooooooXXXXooooooXXooXXoooooooooo..",
"XXXXXXXXXXXXXXoo..XXXXXXXXXXXXooXXXXXXXXXXooXXXXXXXXXXXXXXXXXX..",
"XXXXXXXXXXXXXXoo..XXXXXXXXXXXXooXXXXXXXXXXooXXXXXXXXXXXXXXXXXX..",
".XX..XXXXXXXXXoo..XXXXXXXXXXooooXXXXXXXXXXXXXXXXXXXXXXXXXXXXXX..",
".XX..XXXXXXXXXoo..XXXXXXXXXXooooXXXXXXXXXXXXXXXXXXXXXXXXXXXXXX..",
"XXXXXXXXXXXXXXXX..XXXXXXXXXXooXXXXXXXXXXXXXXXXXXXXXXXXXXXXXX....",
"XXXXXXXXXXXXXXXX..XXXXXXXXXXooXXXXXXXXXXXXXXXXXXXXXXXXXXXXXX....",
"oXXXXXXXXXXXXXoo..XXXXXXXXXXXXXXXXXXXX..XXXXXX....XXXXXXXXXXoo..",
"oXXXXXXXXXXXXXoo..XXXXXXXXXXXXXXXXXXXX..XXXXXX....XXXXXXXXXXoo..",
"XXXXXXXXXXXXXXXX..XXXXXXXXXXXXXXXXXXXXooXXXXXXXXXXXXXXXXXXXXXX..",
"XXXXXXXXXXXXXXXX..XXXXXXXXXXXXXXXXXXXXooXXXXXXXXXXXXXXXXXXXXXX..",
"XooooXXXXXXXXXXX..XXXXXXXXXXXXXXXXooXXXXXXXXooooooXXXXXXXXXXXX..",
"XooooXXXXXXXXXXX..XXXXXXXXXXXXXXXXooXXXXXXXXooooooXXXXXXXXXXXX..",
"XXXXXXXXXXXXXXoo..XXXXXXXXXXXXXXXXXXXXXXXXXXXXXXXXXXXXXXXXXXXX..",
"XXXXXXXXXXXXXXoo..XXXXXXXXXXXXXXXXXXXXXXXXXXXXXXXXXXXXXXXXXXXX..",
"XXXXXXXXXXXXXX......XXXXXXXXXXXXXXXXXXXXXXXXXXXXXXXXXXXXXXXX....",
"XXXXXXXXXXXXXX......XXXXXXXXXXXXXXXXXXXXXXXXXXXXXXXXXXXXXXXX....",
"................................................................",
"................................................................"
};
