/* XPM */
static char *result[] = {
/* columns rows colors chars-per-pixel */
"64 64 4 1 ",
"  c #57B562",
". c #A39374",
"X c #D6CAB2",
"o c #FCEDD1",
/* pixels */
"                  ............................                  ",
"                  ............................                  ",
"            ........oooooo......ooooooooooXX........            ",
"            ........oooooo......ooooooooooXX........            ",
"        ......XXXXXXXXXXXXoo..XXXXXXXXXXXXXXXXXXXX......        ",
"        ......XXXXXXXXXXXXoo..XXXXXXXXXXXXXXXXXXXX......        ",
"      ....XXXXXXXXooooooXXoo..XXXXXXXXXXXXXXXXXXXX........      ",
"      ....XXXXXXXXooooooXXoo..XXXXXXXXXXXXXXXXXXXX........      ",
"    ........XXXXXXXXXXXXXXoo..XXXXXXXXXXooooXXXXXXXXXXXX....    ",
"    ........XXXXXXXXXXXXXXoo..XXXXXXXXXXooooXXXXXXXXXXXX....    ",
"    ..XXXX..XXXXooooXXXXXXXX..XXXXXXXXXXXX..XXXXXXXXXX......    ",
"    ..XXXX..XXXXooooXXXXXXXX..XXXXXXXXXXXX..XXXXXXXXXX......    ",
"  ....ooXXXXXX....XXXXXXXXoo..XXXXXXooXXXXXXXXXXXXooooXXXX....  ",
"  ....ooXXXXXX....XXXXXXXXoo..XXXXXXooXXXXXXXXXXXXooooXXXX....  ",
"  ..XXooXXXXXXXX....XXXXXXXX..XXXXXXXXXXXXXXXXXXXXXXXXoooooo..  ",
"  ..XXooXXXXXXXX....XXXXXXXX..XXXXXXXXXXXXXXXXXXXXXXXXoooooo..  ",
"  ..XXXXXXXXXXXXXXXXXXXXXXXX..XXXXXXXXXXXXXXXXXXXXXXXXXXXXXX..  ",
"  ..XXXXXXXXXXXXXXXXXXXXXXXX..XXXXXXXXXXXXXXXXXXXXXXXXXXXXXX..  ",
"....XXXXXXXXXXXXXXXXXXXXXX......XXXXXXXXXXXXXXXXXXXXXXXXXXXX....",
"....XXXXXXXXXXXXXXXXXXXXXX......XXXXXXXXXXXXXXXXXXXXXXXXXXXX....",
"................................................................",
"................................................................",
"..ooooooooXXooXXooooooXXooooooooooooXXoooooooooooo......ooooXX..",
"..ooooooooXXooXXooooooXXooooooooooooXXoooooooooooo......ooooXX..",
"..XXXXXXXXXXXXXXXXXXXXooXXXXXXXXXXXXXXXXXXXXXXXXXXoo..XXXXXXXX..",
"..XXXXXXXXXXXXXXXXXXXXooXXXXXXXXXXXXXXXXXXXXXXXXXXoo..XXXXXXXX..",
"....XXXXXXXXXXXXXXXXXXXXXXXXXXXXXXXXXXXXXXXXXXXXXXoo..XXXXXXXX..",
"....XXXXXXXXXXXXXXXXXXXXXXXXXXXXXXXXXXXXXXXXXXXXXXoo..XXXXXXXX..",
"..XX..XXXXXXXXXXXXXXXXXXXXXXXXXXXXXXXXXXXXXXXXXXXXXX..XXXXXXXX..",
"..XX..XXXXXXXXXXXXXXXXXXXXXXXXXXXXXXXXXXXXXXXXXXXXXX..XXXXXXXX..",
"..XXXX..XXXXXX..XXXXXXooooooXXXXXXXXXXXXooXXXXXXXXoo..XXXXXXXX..",
"..XXXX..XXXXXX..XXXXXXooooooXXXXXXXXXXXXooXXXXXXXXoo..XXXXXXXX..",
"..XXooXXXXXXXXXXXXXXXXXXXXXXXXXXXXXXXXXXXXXXXXXXXXXX..XXXXXXXX..",
"..XXooXXXXXXXXXXXXXXXXXXXXXXXXXXXXXXXXXXXXXXXXXXXXXX..XXXXXXXX..",
"..ooXXXXXXXXXXXXXXXXXXXXXXXXXXXX....XXXXXXXXXXXXXXoo..XXXXXXXX..",
"..ooXXXXXXXXXXXXXXXXXXXXXXXXXXXX....XXXXXXXXXXXXXXoo..XXXXXXXX..",
"..XXXXXXXXXXXXooooooXXXXXXXXXXXXXXXXXXXXXXXXXXXXXXoo..XXXXXXXX..",
"..XXXXXXXXXXXXooooooXXXXXXXXXXXXXXXXXXXXXXXXXXXXXXoo..XXXXXXXX..",
"..XXXXXXXXXXooXXXXXXXXXXXXXXXXXXXXXXXXXX..XXXXXXXXoo..XXXXXXXX..",
"..XXXXXXXXXXooXXXXXXXXXXXXXXXXXXXXXXXXXX..XXXXXXXXoo..XXXXXXXX..",
"..XXXXXXXXXXXXXXXXXXXXXXXXXXXXXXXXXXXXXXXX..XXXXXX......XXXXXX..",
"..XXXXXXXXXXXXXXXXXXXXXXXXXXXXXXXXXXXXXXXX..XXXXXX......XXXXXX..",
"................................................................",
"................................................................",
"..XXoooooooooo......ooXXooooooooooooXXXXooooooXXooXXoooooooooo..",
"..XXoooooooooo......ooXXooooooooooooXXXXooooooXXooXXoooooooooo..",
"..XXXXXXXXXXXXoo..XXXXXXXXXXXXooXXXXXXXXXXooXXXXXXXXXXXXXXXXXX..",
"..XXXXXXXXXXXXoo..XXXXXXXXXXXXooXXXXXXXXXXooXXXXXXXXXXXXXXXXXX..",
"..XX..XXXXXXXXoo..XXXXXXXXXXooooXXXXXXXXXXXXXXXXXXXXXXXXXXXXXX..",
"..XX..XXXXXXXXoo..XXXXXXXXXXooooXXXXXXXXXXXXXXXXXXXXXXXXXXXXXX..",
"..XXXXXXXXXXXXXX..XXXXXXXXXXooXXXXXXXXXXXXXXXXXXXXXXXXXXXXXX....",
"..XXXXXXXXXXXXXX..XXXXXXXXXXooXXXXXXXXXXXXXXXXXXXXXXXXXXXXXX....",
"..XXXXXXXXXXXXoo..XXXXXXXXXXXXXXXXXXXX..XXXXXX....XXXXXXXXXXoo..",
"..XXXXXXXXXXXXoo..XXXXXXXXXXXXXXXXXXXX..XXXXXX....XXXXXXXXXXoo..",
"..XXXXXXXXXXXXXX..XXXXXXXXXXXXXXXXXXXXooXXXXXXXXXXXXXXXXXXXXXX..",
"..XXXXXXXXXXXXXX..XXXXXXXXXXXXXXXXXXXXooXXXXXXXXXXXXXXXXXXXXXX..",
"..ooooXXXXXXXXXX..XXXXXXXXXXXXXXXXooXXXXXXXXooooooXXXXXXXXXXXX..",
"..ooooXXXXXXXXXX..XXXXXXXXXXXXXXXXooXXXXXXXXooooooXXXXXXXXXXXX..",
"..XXXXXXXXXXXXoo..XXXXXXXXXXXXXXXXXXXXXXXXXXXXXXXXXXXXXXXXXXXX..",
"..XXXXXXXXXXXXoo..XXXXXXXXXXXXXXXXXXXXXXXXXXXXXXXXXXXXXXXXXXXX..",
"..XXXXXXXXXXXX......XXXXXXXXXXXXXXXXXXXXXXXXXXXXXXXXXXXXXXXX....",
"..XXXXXXXXXXXX......XXXXXXXXXXXXXXXXXXXXXXXXXXXXXXXXXXXXXXXX....",
"................................................................",
"................................................................"
};
