/* XPM */
static char *result[] = {
/* columns rows colors chars-per-pixel */
"64 64 4 1 ",
"  c #57B562",
". c #A39374",
"X c #D6CAB2",
"o c #FCEDD1",
/* pixels */
"................................................................",
"................................................................",
"..oooooooooooooooooooooooo......ooooooooooXXooXXooooooXXXXoooooo",
"..oooooooooooooooooooooooo......ooooooooooXXooXXooooooXXXXoooooo",
"..XXXXooooXXXXXXXXXXXXXXXXoo..XXXXXXXXXXXXXXXXXXXXooXXXXXXXXXXXX",
"..XXXXooooXXXXXXXXXXXXXXXXoo..XXXXXXXXXXXXXXXXXXXXooXXXXXXXXXXXX",
"..oooo..XXXXXXXXXXooooooXXoo..XXXXXXXXXXXXXXXXXXXX....XXXXXXXXXX",
"..oooo..XXXXXXXXXXooooooXXoo..XXXXXXXXXXXXXXXXXXXX....XXXXXXXXXX",
"..XXXXXX....XXXXXXXXXXXXXXoo..XXXXXXXXXXooooXXXXXXXXXXXXXXXXXXXX",
"..XXXXXX....XXXXXXXXXXXXXXoo..XXXXXXXXXXooooXXXXXXXXXXXXXXXXXXXX",
"..XXXXXXXX..XXXXooooXXXXXXXX..XXXXXXXXXXXX..XXXXXXXXXX........XX",
"..XXXXXXXX..XXXXooooXXXXXXXX..XXXXXXXXXXXX..XXXXXXXXXX........XX",
"..XXXXooXXXXXX....XXXXXXXXoo..XXXXXXooXXXXXXXXXXXXooooXXXXXXXXXX",
"..XXXXooXXXXXX....XXXXXXXXoo..XXXXXXooXXXXXXXXXXXXooooXXXXXXXXXX",
"..XXXXooXXXXXXXX....XXXXXXXX..XXXXXXXXXXXXXXXXXXXXXXXXooooooXXXX",
"..XXXXooXXXXXXXX....XXXXXXXX..XXXXXXXXXXXXXXXXXXXXXXXXooooooXXXX",
"..XXXXXXXXXXXXXXXXXXXXXXXXXX..XXXXXXXXXXXXXXXXXXXXXXXXXXXXXXXXXX",
"..XXXXXXXXXXXXXXXXXXXXXXXXXX..XXXXXXXXXXXXXXXXXXXXXXXXXXXXXXXXXX",
"..XXXXXXXXXXXXXXXXXXXXXXXX......XXXXXXXXXXXXXXXXXXXXXXXXXXXXXXXX",
"...XXXXXXXXXXXXXXXXXXXXXXX......XXXXXXXXXXXXXXXXXXXXXXXXXXXXXXXX",
"................................................................",
"................................................................",
"..ooooooooXXooXXooooooXXooooooooooooXXoooooooooooo......ooooXXXX",
"..ooooooooXXooXXooooooXXooooooooooooXXoooooooooooo......ooooXXXX",
"..XXXXXXXXXXXXXXXXXXXXooXXXXXXXXXXXXXXXXXXXXXXXXXXoo..XXXXXXXXXX",
"..XXXXXXXXXXXXXXXXXXXXooXXXXXXXXXXXXXXXXXXXXXXXXXXoo..XXXXXXXXXX",
"....XXXXXXXXXXXXXXXXXXXXXXXXXXXXXXXXXXXXXXXXXXXXXXoo..XXXXXXXXXX",
"....XXXXXXXXXXXXXXXXXXXXXXXXXXXXXXXXXXXXXXXXXXXXXXoo..XXXXXXXXXX",
"..XX..XXXXXXXXXXXXXXXXXXXXXXXXXXXXXXXXXXXXXXXXXXXXXX..XXXXXXXX..",
"..XX..XXXXXXXXXXXXXXXXXXXXXXXXXXXXXXXXXXXXXXXXXXXXXX..XXXXXXXX..",
"..XXXX..XXXXXX..XXXXXXooooooXXXXXXXXXXXXooXXXXXXXXoo..XXXXXXXXXX",
"..XXXX..XXXXXX..XXXXXXooooooXXXXXXXXXXXXooXXXXXXXXoo..XXXXXXXXXX",
"..XXooXXXXXXXXXXXXXXXXXXXXXXXXXXXXXXXXXXXXXXXXXXXXXX..XXXXXXXXoo",
"..XXooXXXXXXXXXXXXXXXXXXXXXXXXXXXXXXXXXXXXXXXXXXXXXX..XXXXXXXXoo",
"..ooXXXXXXXXXXXXXXXXXXXXXXXXXXXX....XXXXXXXXXXXXXXoo..XXXXXXXXoo",
"..ooXXXXXXXXXXXXXXXXXXXXXXXXXXXX....XXXXXXXXXXXXXXoo..XXXXXXXXoo",
"..XXXXXXXXXXXXooooooXXXXXXXXXXXXXXXXXXXXXXXXXXXXXXoo..XXXXXXXXXX",
"..XXXXXXXXXXXXooooooXXXXXXXXXXXXXXXXXXXXXXXXXXXXXXoo..XXXXXXXXXX",
"..XXXXXXXXXXooXXXXXXXXXXXXXXXXXXXXXXXXXX..XXXXXXXXoo..XXXXXXXXXX",
"..XXXXXXXXXXooXXXXXXXXXXXXXXXXXXXXXXXXXX..XXXXXXXXoo..XXXXXXXXXX",
"..XXXXXXXXXXXXXXXXXXXXXXXXXXXXXXXXXXXXXXXX..XXXXXX......XXXXXXXX",
"..XXXXXXXXXXXXXXXXXXXXXXXXXXXXXXXXXXXXXXXX..XXXXXX......XXXXXXXX",
"................................................................",
"................................................................",
"....oooooooooo......ooXXooooooooooooXXXXooooooXXooXXooooooooooXX",
"....oooooooooo......ooXXooooooooooooXXXXooooooXXooXXooooooooooXX",
"  ..XXXXXXXXXXoo..XXXXXXXXXXXXooXXXXXXXXXXooXXXXXXXXXXXXXXXXXXXX",
"  ..XXXXXXXXXXoo..XXXXXXXXXXXXooXXXXXXXXXXooXXXXXXXXXXXXXXXXXXXX",
"  ....XXXXXXXXoo..XXXXXXXXXXooooXXXXXXXXXXXXXXXXXXXXXXXXXXXXXXXX",
"  ....XXXXXXXXoo..XXXXXXXXXXooooXXXXXXXXXXXXXXXXXXXXXXXXXXXXXXXX",
"  ....XXXXXXXXXX..XXXXXXXXXXooXXXXXXXXXXXXXXXXXXXXXXXXXXXXXX....",
"  ....XXXXXXXXXX..XXXXXXXXXXooXXXXXXXXXXXXXXXXXXXXXXXXXXXXXX....",
"    ..XXXXXXXXoo..XXXXXXXXXXXXXXXXXXXX..XXXXXX....XXXXXXXXXXoooo",
"    ..XXXXXXXXoo..XXXXXXXXXXXXXXXXXXXX..XXXXXX....XXXXXXXXXXoooo",
"    ....XXXXXXXX..XXXXXXXXXXXXXXXXXXXXooXXXXXXXXXXXXXXXXXXXXXXoo",
"    ....XXXXXXXX..XXXXXXXXXXXXXXXXXXXXooXXXXXXXXXXXXXXXXXXXXXXoo",
"      ....XXXXXX..XXXXXXXXXXXXXXXXooXXXXXXXXooooooXXXXXXXXXXXXXX",
"      ....XXXXXX..XXXXXXXXXXXXXXXXooXXXXXXXXooooooXXXXXXXXXXXXXX",
"        ......oo..XXXXXXXXXXXXXXXXXXXXXXXXXXXXXXXXXXXXXXXXXXXXXX",
"        ......oo..XXXXXXXXXXXXXXXXXXXXXXXXXXXXXXXXXXXXXXXXXXXXXX",
"            ..........XXXXXXXXXXXXXXXXXXXXXXXXXXXXXXXXXXXXXX..XX",
"            ..........XXXXXXXXXXXXXXXXXXXXXXXXXXXXXXXXXXXXXX..XX",
"                  ..............................................",
"                  .............................................."
};
